<svg width="150" height="150" viewBox="0 0 150 150" fill="none" xmlns="http://www.w3.org/2000/svg">
<path d="M102.166 92.2987C105.775 97.1484 109.497 102.111 113.219 107.074C105.775 115.871 96.527 121.51 85.3612 123.879C72.9547 126.473 61.225 124.555 49.8337 118.239C59.9844 110.683 69.9095 103.239 79.9475 95.795C82.2032 97.9379 84.3461 100.081 86.489 102.111C88.8575 104.367 87.9552 104.48 91.0005 102.788C95.1735 100.419 98.6699 97.1484 101.377 93.201C101.49 92.9754 101.715 92.7498 101.828 92.5242C101.715 92.5242 101.828 92.5242 102.166 92.2987V92.2987ZM57.8415 102.224C55.0218 104.367 52.4277 106.284 49.8337 108.314C47.9163 109.78 45.999 111.134 44.0816 112.6C43.2921 113.277 42.7282 113.277 41.8259 112.487C33.2542 104.818 27.8405 95.3439 25.8103 84.0653C23.7802 72.674 25.5847 61.8466 30.9985 51.5831C31.1112 51.3575 31.3368 51.0192 31.4496 50.7936C31.4496 50.6808 31.5624 50.6808 31.788 50.568C39.2318 60.3804 46.7885 70.1927 54.2323 80.005C54.0067 80.3434 53.894 80.569 53.6684 80.7945C51.4127 83.163 49.157 85.5315 46.7885 87.7872C46.1118 88.464 45.999 89.0279 46.4501 89.8174C48.8186 94.3288 52.0894 98.0507 56.1497 101.096C56.7136 101.434 57.1647 101.773 57.8415 102.224V102.224ZM99.9105 32.184C96.3014 34.778 92.6922 37.3721 89.0831 39.8534C82.8799 44.252 76.6767 48.7634 70.5862 53.1621C69.7967 53.726 69.2328 53.8388 68.5561 53.0493C66.526 50.9064 64.383 48.989 62.3529 46.8461C61.789 46.2822 61.225 46.1694 60.4355 46.5077C55.5857 48.989 51.751 52.4854 48.593 56.884C48.3675 57.1096 48.1419 57.4479 47.9163 57.7863C46.1118 55.4178 44.42 53.2749 42.7282 51.0192C40.9236 48.6507 39.2318 46.2822 37.54 44.0265C36.9761 43.237 36.8633 42.673 37.6528 41.8835C46.3373 32.2968 57.052 26.6575 69.9095 25.3041C80.0602 24.1762 89.7598 26.2063 98.7827 31.0561C99.121 31.2817 99.4594 31.3945 99.7977 31.62C99.7977 31.9584 99.7977 32.0712 99.9105 32.184V32.184ZM118.295 99.8553C115.926 96.8101 113.783 93.9904 111.64 91.1708C106.678 84.6292 101.715 77.9749 96.6397 71.4333C95.963 70.5311 95.963 69.9671 96.7525 69.1776C98.8955 67.0347 100.926 64.8918 103.069 62.7489C103.632 62.1849 103.858 61.621 103.407 60.8315C100.926 56.0945 97.542 52.147 93.1434 48.989C92.805 48.7634 92.4667 48.4251 92.0155 48.1995C92.3539 47.8612 92.6922 47.6356 92.9178 47.41C97.2037 44.1392 101.49 40.9812 105.775 37.7105C106.452 37.1465 107.016 36.921 107.806 37.7105C118.52 47.41 124.272 59.4781 124.836 74.0274C125.062 82.4863 123.144 90.4941 119.31 98.0507C118.971 98.5019 118.633 99.0658 118.295 99.8553V99.8553Z" fill="white"/>
</svg>
