<svg width="150" height="150" viewBox="0 0 150 150" fill="none" xmlns="http://www.w3.org/2000/svg">
<path d="M58.0998 27.9049C68.1191 24.1572 79.3963 24.1487 89.6038 27.2289C102.892 31.353 114.109 41.3809 119.97 53.9672C121.587 57.5522 123.136 61.2913 123.29 65.2785C115.82 60.949 107.632 58.1426 99.4264 55.5843C86.3011 50.8527 72.5598 47.5671 60.1362 41.0644C57.2442 39.336 53.5564 37.5649 52.7693 33.9627C52.4527 30.8482 55.7468 29.1113 58.0998 27.9049Z" fill="#FFD83D"/>
<path d="M27.8536 58.194C30.7542 50.3222 35.5114 43.0152 41.9714 37.5991C43.6142 51.1094 49.364 64.1662 58.8614 73.9888C70.2497 85.822 86.4723 93.0863 102.977 92.8125C109.531 93.0178 115.94 91.5034 122.332 90.2798C116.043 113.005 91.1355 128.09 68.0593 124.462C54.1298 122.682 41.2698 114.434 33.5093 102.789C24.7562 89.9205 22.5487 72.8337 27.8536 58.194Z" fill="#FFD83D"/>
<path d="M99.4263 55.5845C107.632 58.1428 115.82 60.9492 123.29 65.2787L123.794 65.5439C124.487 70.7547 124.992 76.0681 124.068 81.2874C120.312 79.6959 117.266 76.898 114.083 74.4253C107.957 69.3258 101.702 63.4904 99.4263 55.5845Z" fill="#FF6F03"/>
</svg>
