<svg width="150" height="150" viewBox="0 0 150 150" fill="none" xmlns="http://www.w3.org/2000/svg">
<path fill-rule="evenodd" clip-rule="evenodd" d="M20.9211 120.738L52.9316 102.137L74.9999 63.8833V27C74.4178 27 73.8357 27.3837 73.3943 28.1469L47.2535 73.4615L21.1164 118.775C20.6756 119.54 20.6334 120.234 20.9217 120.738" fill="#FF4724"/>
<path fill-rule="evenodd" clip-rule="evenodd" d="M74.9999 27V63.8833L97.067 102.137L129.077 120.738C129.366 120.234 129.325 119.54 128.884 118.775L102.745 73.4615L76.6049 28.1469C76.1629 27.3825 75.5808 27 74.9999 27Z" fill="#9E1F63"/>
<path fill-rule="evenodd" clip-rule="evenodd" d="M129.078 120.738L97.0671 102.137H52.9322L20.9218 120.738C21.21 121.244 21.8306 121.558 22.714 121.558H127.284C128.167 121.558 128.788 121.244 129.078 120.738Z" fill="#662D91"/>
</svg>
