<svg width="150" height="150" viewBox="0 0 150 150" fill="none" xmlns="http://www.w3.org/2000/svg">
<path d="M33.097 88.6274H27.3543V66.1976H20V61.3912H40.4513V66.1976H33.097V88.6274Z" fill="white"/>
<path d="M60.2171 88.6274H44.6193V61.3912H60.2171V66.1231H50.362V72.1031H59.5317V76.835H50.362V83.8583H60.2171V88.6274Z" fill="white"/>
<path d="M81.8725 81.0639C81.8725 83.523 80.9895 85.4604 79.2235 86.8762C77.4698 88.2921 75.0245 89 71.8877 89C68.9978 89 66.4414 88.4535 64.2185 87.3606V81.9953C66.0462 82.815 67.59 83.3925 68.8496 83.7279C70.1217 84.0632 71.2825 84.2309 72.3323 84.2309C73.592 84.2309 74.5552 83.9887 75.2221 83.5043C75.9014 83.02 76.241 82.2996 76.241 81.3433C76.241 80.8093 76.0928 80.3373 75.7964 79.9275C75.5 79.5052 75.0616 79.1016 74.4811 78.7166C73.913 78.3316 72.746 77.7168 70.98 76.8723C69.3251 76.0898 68.0839 75.3384 67.2565 74.6181C66.4291 73.8978 65.7684 73.0594 65.2744 72.1031C64.7804 71.1468 64.5334 70.0291 64.5334 68.7498C64.5334 66.3404 65.3423 64.4464 66.9601 63.0679C68.5903 61.6893 70.8379 61 73.7031 61C75.111 61 76.4509 61.1677 77.723 61.503C79.0073 61.8383 80.3473 62.3103 81.7428 62.9188L79.8904 67.4085C78.4454 66.8124 77.2475 66.3963 76.2966 66.1603C75.358 65.9244 74.4317 65.8064 73.5179 65.8064C72.4311 65.8064 71.5975 66.061 71.017 66.5702C70.4366 67.0794 70.1464 67.7438 70.1464 68.5635C70.1464 69.0727 70.2637 69.5198 70.4983 69.9049C70.733 70.2774 71.1035 70.6438 71.6098 71.004C72.1285 71.3517 73.345 71.9851 75.2592 72.9042C77.7909 74.1213 79.526 75.3446 80.4646 76.5742C81.4032 77.7913 81.8725 79.2879 81.8725 81.0639Z" fill="white"/>
<path d="M86.7815 88.6274V61.3912H92.5242V83.8583H103.509V88.6274H86.7815Z" fill="white"/>
<path d="M124.813 88.6274L122.849 82.1444H112.975L111.012 88.6274H104.825L114.383 61.2794H121.404L131 88.6274H124.813ZM121.478 77.3007C119.663 71.4263 118.638 68.104 118.403 67.334C118.181 66.564 118.02 65.9554 117.922 65.5083C117.514 67.098 116.347 71.0288 114.42 77.3007H121.478Z" fill="white"/>
</svg>
