<?xml version="1.0" encoding="UTF-8"?>
<svg width="150px" height="150px" viewBox="0 0 150 150" version="1.1" xmlns="http://www.w3.org/2000/svg" xmlns:xlink="http://www.w3.org/1999/xlink">
    <title>17_F7F7F7_2C2C2C</title>
    <g id="17_F7F7F7_2C2C2C" stroke="none" stroke-width="1" fill="none" fill-rule="evenodd">
        <g id="Instrument-Icon" transform="translate(21.000000, 27.000000)" fill="#000000">
            <path d="M53.3118112,66.44922 C62.2719564,79.4203354 72.0662756,83.3638782 81.4714419,83.4467176 C70.0858349,89.0335637 57.9527465,83.9206363 53.3118112,66.44922 M38,16 C49.6495373,44.9803191 36.7362169,64.320439 49.354783,82.4642033 C58.0240269,94.930576 75.0369365,101.457553 90.8322989,90.2145073 C105.450571,79.8075617 105.916783,60.8373295 97.110758,48.4692082 C84.5750313,30.8552311 61.5803434,36.4863866 38,16" id="Fill-1" transform="translate(70.469784, 56.000000) rotate(5.000000) translate(-70.469784, -56.000000) "></path>
            <path d="M11.7388275,28.3640673 C16.2189001,34.849625 21.1160596,36.8213964 25.8186428,36.8628161 C20.1258393,39.6562392 14.0592951,37.0997755 11.7388275,28.3640673 M4.08292186,3.13945732 C9.90769052,17.6296169 3.45103031,27.2996768 9.76031337,36.371559 C14.0949353,42.6047453 22.6013901,45.868234 30.4990713,40.246711 C37.8082072,35.0432381 38.0413135,25.5581221 33.6383008,19.3740614 C27.3704375,10.5670728 15.8730936,13.3826506 4.08292186,3.13945732" id="Fill-1-Copy" transform="translate(20.317814, 23.139457) rotate(13.000000) translate(-20.317814, -23.139457) "></path>
        </g>
    </g>
</svg>