<svg width="150" height="150" viewBox="0 0 150 150" fill="none" xmlns="http://www.w3.org/2000/svg">
<mask id="mask0_617_5265" style="mask-type:alpha" maskUnits="userSpaceOnUse" x="42" y="26" width="67" height="98">
<path fill-rule="evenodd" clip-rule="evenodd" d="M69.9878 26L69.8311 26.0309C71.3188 33.7605 69.7168 39.8259 66.4567 46.7327C63.3172 53.3853 57.0284 59.0163 52.9407 65.1395C48.9293 71.1462 44.4421 77.2081 42.8586 84.4049C42.2922 86.9754 42.0009 89.647 42 92.3283V92.3535C42.0018 97.4764 43.0652 102.633 45.3029 107.187C48.491 113.672 53.4956 118.308 59.6607 121.97C60.0841 122.221 60.4973 122.495 60.9162 122.759L60.9286 122.741C54.7519 118.755 51.9647 110.796 52.5054 103.646C53.2497 93.8615 60.9365 88.2649 64.5484 79.7923C66.3685 75.5222 68.1104 72.4052 66.4506 67.7617C72.6925 72.7133 77.0747 79.9508 77.1789 88.0406C77.2195 91.204 76.9706 93.356 75.9058 96.2117C80.6023 93.9025 83.4496 89.8064 84.0363 84.6049C92.7247 93.4465 93.6809 105.131 89.1226 116.323C88.0291 119.004 86.7767 121.365 85.158 123.74C90.3427 121.889 95.0688 118.855 98.7844 114.802C105.24 107.761 108.031 98.0799 108.061 88.6313V88.3302C108.056 86.8602 107.985 85.3968 107.851 83.9502C106.905 73.8024 103.448 64.0359 93.9016 59.1099L93.7056 59.1509C95.1544 65.7505 92.3543 72.328 87.1568 75.46L87.1219 75.4401C89.2254 71.7532 90.3171 67.737 90.7395 63.4801C91.4573 56.2259 88.8312 47.3274 85.4197 41.0077C81.7037 34.1221 77.5978 28.876 69.9878 26Z" fill="white"/>
</mask>
<g mask="url(#mask0_617_5265)">
<path fill-rule="evenodd" clip-rule="evenodd" d="M69.9878 26L69.8311 26.0309C71.3188 33.7605 69.7168 39.8259 66.4567 46.7327C63.3172 53.3853 57.0284 59.0163 52.9407 65.1395C48.9293 71.1462 44.4421 77.2081 42.8586 84.4049C42.2922 86.9754 42.0009 89.647 42 92.3283V92.3535C42.0018 97.4764 43.0652 102.633 45.3029 107.187C48.491 113.672 53.4956 118.308 59.6607 121.97C60.0841 122.221 60.4973 122.495 60.9162 122.759L60.9286 122.741C54.7519 118.755 51.9647 110.796 52.5054 103.646C53.2497 93.8615 60.9365 88.2649 64.5484 79.7923C66.3685 75.5222 68.1104 72.4052 66.4506 67.7617C72.6925 72.7133 77.0747 79.9508 77.1789 88.0406C77.2195 91.204 76.9706 93.356 75.9058 96.2117C80.6023 93.9025 83.4496 89.8064 84.0363 84.6049C92.7247 93.4465 93.6809 105.131 89.1226 116.323C88.0291 119.004 86.7767 121.365 85.158 123.74C90.3427 121.889 95.0688 118.855 98.7844 114.802C105.24 107.761 108.031 98.0799 108.061 88.6313V88.3302C108.056 86.8602 107.985 85.3968 107.851 83.9502C106.905 73.8024 103.448 64.0359 93.9016 59.1099L93.7056 59.1509C95.1544 65.7505 92.3543 72.328 87.1568 75.46L87.1219 75.4401C89.2254 71.7532 90.3171 67.737 90.7395 63.4801C91.4573 56.2259 88.8312 47.3274 85.4197 41.0077C81.7037 34.1221 77.5978 28.876 69.9878 26Z" fill="white"/>
</g>
</svg>
