<svg width="150" height="150" viewBox="0 0 150 150" fill="none" xmlns="http://www.w3.org/2000/svg">
<path fill-rule="evenodd" clip-rule="evenodd" d="M80.0419 88.2131H84.8083C88.1759 88.2131 90.508 89.9241 90.508 93.4718C90.508 96.8916 88.2569 98.7559 84.9713 98.7559H83.1751V105.491H80.0419V88.2131ZM83.1549 96.3472H84.4535C86.3403 96.3472 87.2725 95.3106 87.2725 93.4718C87.2725 91.5296 86.1368 90.6219 84.2405 90.6219H83.1549V96.3472Z" fill="white"/>
<path d="M91.7246 90.7796H95.1423V105.491H98.2968V90.7796H101.847V88.2142H91.7246V90.7796" fill="white"/>
<path d="M104.432 105.491H107.617V88.2131H104.432V105.491Z" fill="white"/>
<path d="M110.995 105.491H114.179V97.306L119.281 105.491H123.114L116.897 96.3216L122.627 88.2131H118.976L114.179 95.7005V88.2131H110.995V105.491" fill="white"/>
<path d="M36.6444 105.491H45.863V103.004H39.7787V97.7982H45.2451V95.3383H39.7787V90.7007H45.6094V88.2131H36.6444V105.491" fill="white"/>
<path d="M26.8164 105.363C27.4652 105.569 28.2163 105.777 28.8555 105.777C32.4351 105.777 33.2672 103.289 33.2672 100.234V88.2142H30.0721V100.285C30.0721 101.685 29.9507 103.11 28.2664 103.11C27.8509 103.11 27.4354 102.953 26.9688 102.772L26.8164 105.363" fill="white"/>
<path d="M125 56.0446L124.929 55.0218C109.544 48.5764 92.7686 45 75.041 45C57.3731 45 40.4158 48.6094 25.0714 55.0218L25 56.0446C40.7407 51.1365 57.6778 48.4518 75.0506 48.4518C92.4543 48.4518 109.219 51.113 125 56.0446" fill="white"/>
<path d="M48.9354 105.491H51.6841V91.8929L56.9682 105.491H61.1061V88.2131H58.3372V101.839L53.0839 88.2131H48.9354V105.491" fill="white"/>
<path fill-rule="evenodd" clip-rule="evenodd" d="M63.875 96.8681C63.875 92.6194 65.6605 87.9574 70.5591 87.9574C75.7825 87.9574 77.2932 92.5672 77.2932 96.8681C77.2932 101.192 75.4981 105.779 70.5591 105.779C65.3974 105.779 63.875 101.192 63.875 96.8681ZM67.1307 96.8681C67.1307 99.9235 67.6986 103.396 70.5591 103.396C73.6315 103.396 73.997 99.5091 73.997 96.8681C73.997 94.1471 73.6933 90.3406 70.5591 90.3406C67.5771 90.3406 67.1307 94.1993 67.1307 96.8681Z" fill="white"/>
</svg>
