<svg width="150" height="150" viewBox="0 0 150 150" fill="none" xmlns="http://www.w3.org/2000/svg">
<path fill-rule="evenodd" clip-rule="evenodd" d="M65.6345 41H59.4801V68.7905H65.6345V41ZM51.9495 68.7905L51.7966 66.344V66.4587H51.6437C51.4526 67.2997 50.9939 68.0642 50.1911 68.5994C49.3119 69.1345 48.3562 69.4021 47.3241 69.4021C46.4067 69.4021 45.4893 69.1345 44.7248 68.5611C43.8838 67.9878 43.3868 67.2997 43.2722 66.5352C43.1192 65.7324 43.0428 64.4709 43.0046 62.8654C43.0046 61.604 43.1192 60.6101 43.3104 59.922C43.5015 59.1957 43.922 58.5076 44.4572 57.9342C44.8394 57.5902 45.6804 57.0933 46.9801 56.4052C47.6577 56.0028 48.2532 55.6709 48.7341 55.4028L48.7342 55.4028L48.7342 55.4028C49.1214 55.1869 49.4343 55.0125 49.6559 54.8761C50.1529 54.5321 50.6498 54.1881 51.0703 53.8058C51.1166 53.7518 51.1613 53.701 51.2038 53.6526C51.3721 53.4611 51.5062 53.3085 51.5673 53.1559C51.6819 52.9266 51.7202 52.5826 51.7202 51.8945C51.7202 50.7477 51.2614 50.1743 50.4587 50.1743C50.0764 50.1743 49.7324 50.3654 49.503 50.7477C49.2355 51.13 49.1208 51.5504 49.1208 52.0092V54.4556H42.9663V51.6651C42.9663 49.9449 43.578 48.6452 44.8777 47.5749C46.1391 46.5428 48.0887 46.0459 50.7645 46.0459C52.026 46.0459 53.0963 46.1988 53.9755 46.4663C54.8547 46.7339 55.6192 47.1544 56.1926 47.6514C56.8043 48.1483 57.1865 48.7599 57.4541 49.448C57.7217 50.0978 57.8746 50.8624 57.8746 51.6651V67.1085C57.8746 67.3379 57.9128 67.6437 57.9893 68.1024C58.0138 68.3722 58.0383 68.5633 58.0528 68.6757L58.0528 68.6758C58.0608 68.7386 58.0657 68.7768 58.0657 68.7905H51.9495ZM49.4266 63.9358C49.656 64.2416 49.9618 64.3945 50.4205 64.3945C50.8792 64.3945 51.2233 64.2798 51.4144 63.974C51.6055 63.7064 51.7202 63.4388 51.7202 63.2477V57.5902L51.4074 57.8508L51.4073 57.8509L51.4072 57.8509C50.4549 58.644 49.9127 59.0955 49.8089 59.2339C49.3884 59.6162 49.159 60.1131 49.159 60.6483V62.9801C49.159 63.3241 49.2737 63.63 49.4266 63.9358ZM74.4266 68.7905H68.2722V50.633H66.9725V46.581H68.2339C68.2339 45.2431 68.3868 44.1728 68.6926 43.37C69.0367 42.5291 69.5336 41.9174 70.1452 41.5734C70.7951 41.1911 71.5978 41 72.5153 41H76.2997V44.8609C75.0382 44.8609 74.4266 45.2049 74.4266 45.7783V46.581H76.2614V50.633H74.4266V68.7905ZM91.4373 66C91.896 64.9679 92.1253 63.7064 92.1253 62.2538V53.1178C92.1253 50.7477 91.5519 48.9511 90.3287 47.7661C89.1437 46.5811 87.2324 46.0077 84.633 46.0077C82.7981 46.0077 81.3837 46.2753 80.2752 46.8869C79.1284 47.422 78.3639 48.263 77.9051 49.2951C77.4082 50.3655 77.1788 51.6269 77.1788 53.1178V62.2538C77.1788 63.7829 77.4082 65.0061 77.9051 66.0765C78.4021 67.1468 79.2048 67.9113 80.3134 68.4847C81.4602 69.0199 82.8746 69.2875 84.6712 69.2875C86.4678 69.2875 87.9587 69.0199 89.029 68.4465C90.1376 67.8731 90.9403 67.0704 91.4373 66ZM84.5948 65.2354C85.5122 65.2354 85.9709 64.7003 85.9709 63.6299V51.6269C85.9709 51.0917 85.8562 50.6712 85.6651 50.4036C85.4357 50.0978 85.0535 49.9449 84.633 49.9449C84.2125 49.9449 83.9067 50.0978 83.6773 50.3654C83.448 50.7094 83.3333 51.0917 83.3333 51.6269V63.6299C83.3333 64.1269 83.448 64.4709 83.6773 64.7767C83.8685 65.0825 84.2125 65.2354 84.5948 65.2354ZM108.563 68.7905V46.5811H102.408V63.1713C102.408 63.4771 102.294 63.7064 102.026 63.9358C101.797 64.1652 101.453 64.2798 101.07 64.2798C100.65 64.2798 100.344 64.1269 100.153 63.8211C99.9618 63.5535 99.8089 63.2477 99.8089 62.8655V46.5811H93.6545V64.8532C93.6545 65.7324 93.8074 66.5734 94.1514 67.2233C94.4955 67.9113 94.9542 68.4465 95.5276 68.7905C96.101 69.1346 96.8273 69.3257 97.5918 69.3257C98.7386 69.3257 99.7325 69.0199 100.573 68.4465C101.491 67.8349 102.103 67.0704 102.523 66.2676V68.8288H108.563V68.7905ZM118.846 58.5077V52.4297C118.846 52.0857 118.731 51.7798 118.463 51.5123C118.234 51.2829 117.966 51.1682 117.622 51.1682C117.317 51.1682 117.011 51.2829 116.743 51.5123C116.437 51.7798 116.284 52.0474 116.284 52.4297V68.8288H110.13V46.6575H116.132V49.3334C117.202 47.1927 118.807 46.1223 120.986 46.1223C122.133 46.1223 123.127 46.5046 123.853 47.3074C124.618 48.1101 125 49.1805 125 50.4037V58.5077H118.846ZM38.2645 77.4221C37.0413 77.0398 35.3211 76.8487 33.0658 76.8487H25V104.639H33.2187C34.9771 104.639 36.3532 104.448 37.5 104.104C38.6086 103.722 39.4495 103.225 39.9847 102.613C40.5581 102.002 40.9021 101.314 41.0933 100.549C41.2844 99.7845 41.3991 98.9435 41.3991 97.9878V96.9557C41.3991 95.0062 41.2462 93.5918 40.9786 92.6744C40.711 91.7187 40.2141 91.0689 39.526 90.7248C38.8761 90.3808 37.8058 90.1897 36.3914 90.075V89.8456C37.6147 89.6927 38.6086 89.3487 39.3731 88.89C40.1376 88.393 40.6728 87.7814 40.9786 87.0933C41.2844 86.367 41.4373 85.4496 41.4373 84.4557V82.5826C41.4373 81.2065 41.208 80.0979 40.7492 79.2952C40.3287 78.4542 39.4878 77.8426 38.2645 77.4221ZM32.8364 80.7094H31.5749V88.1253H32.6452C33.2951 88.1253 33.8685 87.9724 34.289 87.5902C34.7095 87.2079 34.9388 86.7492 34.9388 86.1758V82.5061C34.9388 81.9709 34.7095 81.5504 34.289 81.2064C33.8303 80.8623 33.3333 80.7094 32.8364 80.7094ZM34.9389 98.5611C34.9389 99.0963 34.7477 99.6315 34.289 100.014C33.9067 100.434 33.448 100.664 32.8746 100.664H31.4985V92.1391H33.1422C33.6392 92.1391 34.0214 92.3302 34.4037 92.7125C34.7477 93.0565 34.9389 93.477 34.9389 94.0122V98.5611ZM50.2676 81.8562C52.9052 81.8562 54.8165 82.3914 56.0397 83.5C57.2248 84.6085 57.8746 86.0229 57.9128 87.7431V94.1269H49.159V99.7079C49.159 100.052 49.2737 100.358 49.5413 100.664C49.8088 100.931 50.1147 101.084 50.4587 101.084C50.841 101.084 51.185 100.969 51.4144 100.702C51.6437 100.396 51.7584 100.052 51.7584 99.6697V96H57.9128V99.1345C57.9128 99.899 57.7599 100.664 57.4923 101.39C57.2248 102.154 56.7278 102.804 56.1544 103.378C55.5428 103.951 54.74 104.372 53.8226 104.716C52.8287 105.021 51.7202 105.174 50.4205 105.174C45.451 105.174 42.9663 102.842 42.9663 98.2171V88.8134C42.9663 87.3608 43.1575 86.0993 43.6926 85.1055C44.1514 84.0733 44.9541 83.2706 46.0244 82.7354C47.133 82.1238 48.5092 81.8562 50.2676 81.8562ZM49.1208 90.3807V87.7431C49.1208 86.4434 49.5413 85.8318 50.4205 85.8318C50.8028 85.8318 51.1468 85.9847 51.3761 86.2523C51.6055 86.5581 51.7202 86.8639 51.7202 87.2079V90.3807H49.1208ZM74.2737 87.5138V102.995C74.2737 103.187 74.3119 103.531 74.3884 104.066C74.4129 104.336 74.4374 104.527 74.4519 104.639C74.4599 104.702 74.4648 104.74 74.4648 104.754H68.3486L68.1957 102.307H68.0046C67.8517 103.148 67.3547 103.913 66.552 104.448C65.6728 104.983 64.7553 105.251 63.685 105.251C62.7676 105.251 61.8501 104.983 61.0856 104.41C60.2829 103.836 59.7477 103.148 59.633 102.384C59.4801 101.581 59.4037 100.32 59.3654 98.7141C59.3654 97.4526 59.4801 96.4587 59.6712 95.7707C59.9006 95.0444 60.2829 94.3563 60.818 93.7829C61.2003 93.4389 62.0413 92.9419 63.341 92.2539C64.0185 91.8515 64.614 91.5196 65.0949 91.2515L65.0951 91.2515C65.4823 91.0356 65.7952 90.8612 66.0168 90.7248C66.5902 90.3808 67.0489 90.0367 67.4694 89.6545C67.5155 89.6006 67.5601 89.5499 67.6026 89.5016L67.6029 89.5013C67.7712 89.3098 67.9053 89.1572 67.9663 89.0046C68.081 88.7753 68.1193 88.4312 68.1193 87.7432C68.1193 86.5964 67.6988 86.023 66.8578 86.023C66.5137 86.023 66.1315 86.2141 65.9021 86.5964C65.6345 86.9786 65.5199 87.3991 65.5199 87.8578V90.3043H59.3654V87.5138C59.3654 85.7936 59.9771 84.4939 61.2767 83.4236C62.5382 82.3915 64.526 81.8945 67.1636 81.8945C68.4251 81.8945 69.4572 82.0474 70.3746 82.315C71.2538 82.5826 72.0183 83.0031 72.5917 83.5C73.1651 83.997 73.5856 84.6086 73.8532 85.2967C74.1208 85.9465 74.2737 86.711 74.2737 87.5138ZM68.1193 99.0964C68.1193 99.2875 68.0046 99.5551 67.8135 99.8227C67.6224 100.128 67.2783 100.243 66.8196 100.243C66.3227 100.243 66.0168 100.09 65.8257 99.7844C65.6728 99.4786 65.5581 99.1728 65.5581 98.8288V96.497C65.5581 95.9618 65.7875 95.4649 66.208 95.0826C66.3118 94.9442 66.8541 94.4926 67.8065 93.6994L68.1193 93.4389V99.0964ZM88.4556 78.3395H94.5336V82.4297H97.2477V86.4817H94.5336V99.7844C94.5336 100.473 95.0305 100.817 96.1009 100.817H97.2859V104.639H92.6223C91.399 104.639 90.4052 104.257 89.6024 103.492C88.8379 102.766 88.4556 101.734 88.4556 100.434V86.4817H83.5626V99.7844C83.5626 100.473 84.0596 100.817 85.0917 100.817H86.2767V104.639H81.6131C80.3516 104.639 79.3195 104.257 78.555 103.492C77.7905 102.728 77.4082 101.734 77.4082 100.434V86.4817H75.344V82.4297H77.4082V78.3395H83.5626V82.4297H88.4556V78.3395ZM108.027 82.4297C107.951 83.0031 107.836 83.6147 107.645 84.3027C107.62 84.4475 107.594 84.596 107.568 84.7471L107.567 84.7525L107.567 84.7554L107.567 84.7556L107.567 84.7557C107.477 85.2803 107.381 85.835 107.263 86.367C107.21 86.7034 107.165 87.0317 107.121 87.3556L107.12 87.3564L107.12 87.3565L107.12 87.3567C107.069 87.7315 107.019 88.1005 106.957 88.4694C106.933 88.6853 106.913 88.9012 106.893 89.1147C106.849 89.5817 106.806 90.0374 106.728 90.4572C106.346 93.0948 106.04 95.7324 105.963 98.3318H105.81C105.734 96.1147 105.466 93.5917 105.008 90.6483C104.984 90.462 104.965 90.2829 104.945 90.1065V90.1064V90.1063C104.901 89.7035 104.858 89.3152 104.778 88.8899C104.75 88.6909 104.721 88.4709 104.691 88.2355L104.691 88.2345C104.64 87.8371 104.583 87.3963 104.511 86.9404C104.469 86.6934 104.428 86.4317 104.385 86.1587C104.309 85.6711 104.226 85.1477 104.128 84.6086L104.128 84.6082C104.09 84.3025 104.052 83.9969 104.014 83.844C103.995 83.7293 103.975 83.6241 103.956 83.5189C103.937 83.4139 103.918 83.3088 103.899 83.1942C103.882 83.1104 103.873 83.0339 103.864 82.9648C103.853 82.8763 103.844 82.7999 103.823 82.7355C103.823 82.6723 103.811 82.6208 103.801 82.5744C103.792 82.5366 103.784 82.5022 103.784 82.4679H97.6299C98.2402 85.2888 98.7687 87.7632 99.2239 89.8947L99.2244 89.897C100.052 93.7721 100.638 96.5131 101.032 98.1407C101.988 102.307 102.485 104.563 102.485 104.983C102.485 105.251 102.408 105.48 102.217 105.595C102.026 105.748 101.873 105.824 101.72 105.824H98.2033V109.723H104.205C104.74 109.723 105.275 109.609 105.772 109.379C106.269 109.15 106.69 108.92 106.919 108.576C107.454 108.041 107.875 107.162 108.18 106.015C108.486 104.868 108.907 103.034 109.442 100.587C111.162 92.1009 112.462 86.0612 113.264 82.3914H108.027V82.4297ZM39.9465 66.7645C39.4113 67.3761 38.5703 67.8731 37.4618 68.2554C36.3532 68.5994 34.9388 68.7905 33.1804 68.7905H25V41H33.0658C35.3211 41 37.0413 41.1911 38.2645 41.6116C39.4495 41.9939 40.3287 42.6055 40.7492 43.4465C41.208 44.2492 41.4373 45.3578 41.4373 46.7339V48.607C41.4373 49.6009 41.2844 50.5183 40.9786 51.2446C40.6728 51.9327 40.1758 52.5443 39.3731 53.0413C38.5703 53.5 37.6147 53.844 36.3532 53.9969V54.2263C37.8058 54.341 38.8761 54.5321 39.526 54.8761C40.2141 55.2202 40.711 55.87 40.9786 56.8257C41.2462 57.7431 41.3991 59.1575 41.3991 61.107V62.1391C41.3991 63.0948 41.2844 63.9358 41.0933 64.7003C40.8639 65.4648 40.5199 66.1529 39.9465 66.7645ZM31.4985 44.8609H32.7982C33.2951 44.8609 33.7921 45.0138 34.2508 45.3578C34.6713 45.7019 34.9006 46.1224 34.9006 46.6575V50.3272C34.9006 50.9006 34.6713 51.3594 34.2508 51.7416C33.8303 52.1239 33.2569 52.2768 32.6071 52.2768H31.4985V44.8609ZM31.4985 56.2906V64.7768H32.8746C33.448 64.7768 33.9067 64.5474 34.289 64.1269C34.7095 63.7447 34.9006 63.2095 34.9006 62.6743L34.9389 58.1636C34.9389 57.6285 34.7477 57.208 34.4037 56.8639C34.0597 56.4817 33.6392 56.2906 33.1422 56.2906H31.4985Z" fill="#F9F9F9"/>
</svg>
