<svg width="150" height="150" viewBox="0 0 150 150" fill="none" xmlns="http://www.w3.org/2000/svg">
<rect x="19" y="42" width="70" height="44" rx="2" fill="white"/>
<mask id="mask0" mask-type="alpha" maskUnits="userSpaceOnUse" x="19" y="42" width="70" height="44">
<rect x="19" y="42" width="70" height="44" rx="2" fill="white"/>
</mask>
<g mask="url(#mask0)">
<path d="M52 69H90C90 65.5401 89.5618 62.1884 88.7455 59H52V69Z" fill="#F44247"/>
<path d="M19 86H91C91 82.5401 90.1698 79.1884 88.623 76H19V86Z" fill="#F44247"/>
<path d="M52 52H115C110.699 48.1709 105.2 44.7864 98.7885 42H52V52Z" fill="#F44247"/>
<rect x="14" y="40" width="39" height="29" fill="#007CE0"/>
<path fill-rule="evenodd" clip-rule="evenodd" d="M49.4922 51.0714L48.5603 48.3704L51 46.7011H47.9844L47.0526 44L46.1208 46.7011H43.1053L45.545 48.3704L44.613 51.0714L47.0526 49.4021L49.4922 51.0714ZM38.4396 58.1429L37.5077 55.4418L39.9474 53.7725H36.9318L36 51.0714L35.0682 53.7725H32.0526L34.4923 55.4418L33.5604 58.1429L36 56.4736L38.4396 58.1429ZM27.387 66L24.9474 64.3307L22.5078 66L23.4397 63.299L21 61.6296H24.0156L24.9474 58.9286L25.8792 61.6296H28.8947L26.455 63.299L27.387 66ZM38.4396 66L36 64.3307L33.5604 66L34.4923 63.299L32.0526 61.6296H35.0682L36 58.9286L36.9318 61.6296H39.9474L37.5077 63.299L38.4396 66ZM26.455 55.4418L27.387 58.1429L24.9474 56.4736L22.5078 58.1429L23.4397 55.4418L21 53.7725H24.0156L24.9474 51.0714L25.8792 53.7725H28.8947L26.455 55.4418ZM47.0526 64.3307L49.4922 66L48.5603 63.299L51 61.6296H47.9844L47.0526 58.9286L46.1208 61.6296H43.1053L45.545 63.299L44.613 66L47.0526 64.3307ZM48.5603 55.4418L49.4922 58.1429L47.0526 56.4736L44.613 58.1429L45.545 55.4418L43.1053 53.7725H46.1208L47.0526 51.0714L47.9844 53.7725H51L48.5603 55.4418ZM37.5077 48.3704L38.4396 51.0714L36 49.4021L33.5604 51.0714L34.4923 48.3704L32.0526 46.7011H35.0682L36 44L36.9318 46.7011H39.9474L37.5077 48.3704ZM27.387 51.0714L26.455 48.3704L28.8947 46.7011H25.8792L24.9473 44L24.0156 46.7011H21L23.4397 48.3704L22.5078 51.0714L24.9473 49.4021L27.387 51.0714Z" fill="white"/>
</g>
<g filter="url(#filter0_d)">
<rect x="58" y="75" width="75" height="37" rx="3" fill="#2C2C2C"/>
<rect x="59" y="76" width="73" height="35" rx="2" stroke="#F7F7F7" stroke-width="2"/>
</g>
<path d="M85.6367 85.8672V96.9531C85.6367 98.2188 85.3516 99.3281 84.7812 100.281C84.2188 101.234 83.4023 101.965 82.332 102.473C81.2617 102.98 79.9961 103.234 78.5352 103.234C76.332 103.234 74.6211 102.672 73.4023 101.547C72.1836 100.414 71.5742 98.8672 71.5742 96.9062V85.8672H75.1953V96.3555C75.1953 97.6758 75.4609 98.6445 75.9922 99.2617C76.5234 99.8789 77.4023 100.188 78.6289 100.188C79.8164 100.188 80.6758 99.8789 81.207 99.2617C81.7461 98.6367 82.0156 97.6602 82.0156 96.332V85.8672H85.6367ZM101.945 98.2422C101.945 99.7891 101.387 101.008 100.27 101.898C99.1602 102.789 97.6133 103.234 95.6289 103.234C93.8008 103.234 92.1836 102.891 90.7773 102.203V98.8281C91.9336 99.3438 92.9102 99.707 93.707 99.918C94.5117 100.129 95.2461 100.234 95.9102 100.234C96.707 100.234 97.3164 100.082 97.7383 99.7773C98.168 99.4727 98.3828 99.0195 98.3828 98.418C98.3828 98.082 98.2891 97.7852 98.1016 97.5273C97.9141 97.2617 97.6367 97.0078 97.2695 96.7656C96.9102 96.5234 96.1719 96.1367 95.0547 95.6055C94.0078 95.1133 93.2227 94.6406 92.6992 94.1875C92.1758 93.7344 91.7578 93.207 91.4453 92.6055C91.1328 92.0039 90.9766 91.3008 90.9766 90.4961C90.9766 88.9805 91.4883 87.7891 92.5117 86.9219C93.543 86.0547 94.9648 85.6211 96.7773 85.6211C97.668 85.6211 98.5156 85.7266 99.3203 85.9375C100.133 86.1484 100.98 86.4453 101.863 86.8281L100.691 89.6523C99.7773 89.2773 99.0195 89.0156 98.418 88.8672C97.8242 88.7188 97.2383 88.6445 96.6602 88.6445C95.9727 88.6445 95.4453 88.8047 95.0781 89.125C94.7109 89.4453 94.5273 89.8633 94.5273 90.3789C94.5273 90.6992 94.6016 90.9805 94.75 91.2227C94.8984 91.457 95.1328 91.6875 95.4531 91.9141C95.7812 92.1328 96.5508 92.5312 97.7617 93.1094C99.3633 93.875 100.461 94.6445 101.055 95.418C101.648 96.1836 101.945 97.125 101.945 98.2422ZM117.539 103L116.297 98.9219H110.051L108.809 103H104.895L110.941 85.7969H115.383L121.453 103H117.539ZM115.43 95.875C114.281 92.1797 113.633 90.0898 113.484 89.6055C113.344 89.1211 113.242 88.7383 113.18 88.457C112.922 89.457 112.184 91.9297 110.965 95.875H115.43Z" fill="white"/>
<defs>
<filter id="filter0_d" x="46" y="67" width="91" height="53" filterUnits="userSpaceOnUse" color-interpolation-filters="sRGB">
<feFlood flood-opacity="0" result="BackgroundImageFix"/>
<feColorMatrix in="SourceAlpha" type="matrix" values="0 0 0 0 0 0 0 0 0 0 0 0 0 0 0 0 0 0 127 0"/>
<feOffset dx="-4"/>
<feGaussianBlur stdDeviation="4"/>
<feColorMatrix type="matrix" values="0 0 0 0 0 0 0 0 0 0 0 0 0 0 0 0 0 0 0.15 0"/>
<feBlend mode="normal" in2="BackgroundImageFix" result="effect1_dropShadow"/>
<feBlend mode="normal" in="SourceGraphic" in2="effect1_dropShadow" result="shape"/>
</filter>
</defs>
</svg>
