<svg width="150" height="150" viewBox="0 0 150 150" fill="none" xmlns="http://www.w3.org/2000/svg">
<path d="M32.9849 92.6186C32.6595 92.912 32.333 93.254 32.0396 93.629C31.7296 94.0206 31.4528 94.4441 31.1913 94.9168C30.9311 95.3735 30.6862 95.8786 30.4579 96.4493C30.2461 97.0042 30.0343 97.591 29.8379 98.2426C29.6581 98.8779 29.496 99.5143 29.3813 100.15C29.2511 100.785 29.153 101.422 29.1044 102.057C29.0335 102.677 29.0098 103.313 29.0098 103.949C29.0098 104.585 29.0453 105.204 29.1044 105.84C29.1636 106.475 29.2677 107.062 29.3813 107.6C29.4996 108.139 29.6416 108.627 29.8214 109.084C30.0012 109.524 30.1964 109.932 30.4413 110.29C30.6696 110.649 30.9299 110.959 31.2079 111.236C31.5013 111.496 31.8113 111.692 32.1047 111.822C32.4146 111.953 32.7246 112.018 33.05 112.018C33.3599 112.018 33.6852 111.959 34.0283 111.822C34.3702 111.676 34.7133 111.464 35.0718 111.186C35.4137 110.909 35.7567 110.583 36.082 110.208C36.392 109.833 36.702 109.409 36.9789 108.92C37.2557 108.447 37.5171 107.925 37.7608 107.338C37.9891 106.768 38.2174 106.148 38.4126 105.463C38.6078 104.844 38.7711 104.208 38.8859 103.572C39.016 102.952 39.1142 102.317 39.1793 101.697C39.2384 101.078 39.274 100.459 39.2976 99.8227C39.2976 99.2028 39.2621 98.6 39.2029 97.9804C39.2029 97.9449 39.2029 97.8977 39.2029 97.8503C39.2029 97.8148 39.1911 97.7675 39.1911 97.732C39.1911 97.6847 39.1911 97.6373 39.1793 97.6019C39.1793 97.5664 39.1793 97.519 39.1675 97.4835C39.1675 97.448 39.1675 97.4362 39.1675 97.4244C39.1675 97.4126 39.1675 97.3771 39.1556 97.3653C39.1556 97.3535 39.1556 97.3297 39.1556 97.2943C39.1556 97.2824 39.1556 97.2588 39.1556 97.247C39.061 96.627 38.9604 96.0568 38.8137 95.5351C38.6836 95.0134 38.5203 94.5567 38.3239 94.1331C38.1287 93.7096 37.9169 93.3345 37.672 93.008C37.4272 92.6815 37.1669 92.4046 36.8735 92.1929C36.5636 91.948 36.2536 91.7847 35.9437 91.6877C35.6337 91.5931 35.3237 91.5575 34.9984 91.6048C34.6719 91.6403 34.3465 91.7351 34.02 91.9149C33.6946 92.0781 33.3516 92.3064 33.0097 92.6164L32.9849 92.6186ZM34.4769 105.463C34.3467 105.581 34.2 105.675 34.0687 105.724C33.9386 105.784 33.8085 105.819 33.6772 105.819C33.547 105.831 33.4168 105.807 33.2855 105.76C33.1672 105.713 33.0572 105.63 32.9271 105.532C32.8088 105.437 32.7154 105.32 32.6172 105.173C32.5225 105.026 32.4373 104.863 32.3569 104.685C32.2977 104.505 32.2267 104.309 32.1771 104.098C32.1297 103.886 32.0942 103.641 32.0587 103.396C32.0232 103.136 32.0114 102.891 32.0114 102.63C32.0114 102.368 32.0232 102.124 32.0587 101.863C32.0706 101.603 32.1061 101.358 32.1771 101.096C32.2244 100.836 32.2717 100.575 32.3569 100.314C32.4397 100.054 32.5202 99.8092 32.6172 99.5809C32.7118 99.3526 32.8136 99.1408 32.9106 98.961C33.0289 98.7658 33.1388 98.6025 33.2524 98.4392C33.3825 98.2925 33.5139 98.1624 33.644 98.0476C33.7907 97.9175 33.9209 97.8359 34.0522 97.7708C34.1823 97.7117 34.329 97.6762 34.4592 97.6525C34.5775 97.6407 34.7041 97.6525 34.8342 97.6998C34.9643 97.7353 35.079 97.8182 35.1926 97.9116C35.3228 98.0063 35.421 98.1234 35.518 98.2535C35.6126 98.4002 35.7143 98.5468 35.7794 98.7267C35.8622 98.9065 35.9261 99.1018 35.9746 99.3135C36.0219 99.5253 36.0693 99.7702 36.1048 100.03C36.1166 100.292 36.1403 100.536 36.1403 100.814C36.1521 101.059 36.1403 101.335 36.1048 101.596C36.093 101.856 36.0574 102.117 36.0101 102.378C35.9391 102.638 35.88 102.916 35.7984 103.176C35.7274 103.436 35.6351 103.681 35.5381 103.926C35.4435 104.138 35.3418 104.35 35.2282 104.546C35.1335 104.741 34.9999 104.905 34.8863 105.068C34.7561 105.215 34.626 105.361 34.4781 105.459" fill="#70BD42"/>
<path d="M28.697 53.883C28.3871 54.2095 28.0771 54.5845 27.8003 54.9749C27.54 55.3819 27.2785 55.8232 27.0336 56.2955C26.7887 56.7687 26.5605 57.2739 26.3653 57.8117C26.1535 58.3665 25.9571 58.9368 25.795 59.5398C25.6152 60.1597 25.4697 60.7624 25.3549 61.3656C25.2366 61.9524 25.1432 62.5393 25.0947 63.1264C25.0237 63.6966 25 64.268 25 64.8381C25 65.3929 25.0355 65.9467 25.0829 66.501C25.142 67.0713 25.2295 67.5764 25.3277 68.0335C25.446 68.4901 25.5726 68.897 25.7359 69.2562C25.8826 69.6312 26.0624 69.9412 26.2907 70.218C26.4859 70.4948 26.7308 70.7232 26.9923 70.903C27.2526 71.0828 27.5306 71.1964 27.8074 71.2449C28.0843 71.304 28.3622 71.2922 28.6556 71.2331C28.949 71.1621 29.259 71.0379 29.5689 70.8415C29.8623 70.6463 30.1889 70.4014 30.5142 70.0749C30.8242 69.7649 31.1342 69.3899 31.4275 68.9983C31.7209 68.5914 31.9823 68.1501 32.2426 67.6615C32.504 67.1883 32.7478 66.6511 32.9595 66.0964C33.1878 65.5262 33.3997 64.9228 33.5795 64.2868C33.7593 63.6834 33.906 63.0967 34.0196 62.4936C34.1379 61.9068 34.2314 61.3366 34.2964 60.7654C34.3438 60.1952 34.3792 59.6403 34.391 59.0861C34.391 58.5325 34.3792 57.9777 34.3319 57.4396C34.3319 57.4041 34.3319 57.3804 34.3201 57.3449C34.3201 57.2976 34.3201 57.2621 34.3201 57.2266C34.3083 57.1911 34.3083 57.1439 34.3083 57.1084C34.3083 57.0729 34.2964 57.0374 34.2964 57.0137C34.2964 57.0019 34.2964 56.9782 34.2964 56.9546C34.2964 56.9427 34.2846 56.919 34.2846 56.9072C34.2846 56.8954 34.2846 56.8717 34.2846 56.8599C34.2846 56.8481 34.2846 56.8244 34.2846 56.8126C34.2018 56.2743 34.1048 55.7857 33.9912 55.3453C33.861 54.9218 33.7143 54.5302 33.5511 54.1883C33.3713 53.8464 33.1761 53.5684 32.9643 53.3247C32.736 53.0798 32.491 52.8846 32.2308 52.7379C31.9539 52.5912 31.6759 52.5096 31.3991 52.4776C31.1057 52.4658 30.8289 52.4895 30.5355 52.596C30.2421 52.6906 29.9487 52.8562 29.6388 53.0692C29.3288 53.2809 29.0188 53.5577 28.7255 53.9008L28.697 53.883ZM29.9971 65.1009C29.867 65.2311 29.7368 65.3458 29.6221 65.4262C29.492 65.509 29.3772 65.5564 29.2636 65.5895C29.1334 65.625 29.0187 65.625 28.9052 65.6013C28.8105 65.5895 28.6934 65.5303 28.5786 65.4712C28.484 65.412 28.3835 65.3244 28.2853 65.2109C28.2024 65.0926 28.1385 64.9826 28.0734 64.8359C28.0143 64.6892 27.9434 64.5259 27.9102 64.3473C27.8629 64.1521 27.8274 63.9557 27.7919 63.7274C27.7801 63.5156 27.7564 63.2872 27.7564 63.0589C27.7564 62.8306 27.7682 62.6023 27.7919 62.3739C27.8274 62.129 27.8629 61.9007 27.9102 61.657C27.9576 61.4121 28.0048 61.1684 28.09 60.9235C28.1492 60.6633 28.2368 60.4349 28.3184 60.2066C28.4012 59.9949 28.4982 59.7831 28.5952 59.6032C28.6899 59.408 28.7915 59.2283 28.9217 59.065C29.0163 58.9018 29.1501 58.755 29.2802 58.6249C29.3985 58.4948 29.525 58.38 29.6386 58.2995C29.7687 58.2167 29.8835 58.1529 29.9971 58.1197C30.1273 58.0842 30.242 58.0724 30.3555 58.0843C30.4738 58.0961 30.5673 58.1315 30.6821 58.2025C30.8004 58.2735 30.8938 58.3493 30.9754 58.4475C31.0701 58.5658 31.1553 58.6758 31.2204 58.8225C31.2914 58.9526 31.3386 59.1159 31.3836 59.3111C31.4309 59.4909 31.4664 59.6861 31.5019 59.9144C31.5138 60.1428 31.5374 60.3711 31.5374 60.5994C31.5374 60.8278 31.5374 61.0726 31.5019 61.3009C31.4901 61.5458 31.4428 61.7896 31.4073 62.0345C31.36 62.2947 31.289 62.5396 31.2109 62.801C31.1518 63.0459 31.0642 63.2897 30.9661 63.5026C30.8832 63.7309 30.7861 63.9427 30.6891 64.1379C30.5945 64.3177 30.494 64.4964 30.3638 64.6597C30.2455 64.8229 30.1355 64.9695 30.0053 65.0997" fill="#70BD42"/>
<path d="M57.3246 71.2623C56.9011 71.6373 56.5095 72.0443 56.1511 72.5013C55.776 72.9579 55.4341 73.4465 55.1242 73.9848C54.8142 74.5231 54.5208 75.1099 54.2606 75.7456C53.9837 76.3809 53.7388 77.0497 53.527 77.7833C53.2987 78.5003 53.1355 79.2181 52.9888 79.9191C52.8421 80.6195 52.7605 81.3211 52.6954 82.0058C52.6362 82.7073 52.6126 83.3916 52.6363 84.0762C52.6718 84.7612 52.7191 85.4457 52.8161 86.1141C52.9344 86.7991 53.061 87.4184 53.223 88.0052C53.3863 88.5754 53.5815 89.0972 53.8098 89.5541C54.0381 90.0273 54.3149 90.4342 54.6083 90.8094C54.9183 91.1679 55.2602 91.4778 55.6187 91.7227C56.0103 91.9842 56.3853 92.1628 56.7757 92.2775C57.1508 92.3722 57.5589 92.4243 57.9659 92.3722C58.3741 92.3367 58.781 92.2255 59.2049 92.0303C59.6284 91.8351 60.0531 91.5736 60.4927 91.2317C60.9328 90.8898 61.3563 90.4817 61.748 90.0416C62.1396 89.585 62.4981 89.0798 62.84 88.5254C63.1819 87.9705 63.4919 87.3684 63.7853 86.6995C64.0787 86.0477 64.3401 85.3302 64.5673 84.5802C64.7956 83.8633 64.9754 83.1617 65.1221 82.4444C65.2522 81.7429 65.367 81.0587 65.4321 80.3576C65.503 79.6726 65.5149 78.9883 65.5031 78.3198C65.4913 77.6349 65.4321 76.9667 65.3563 76.2983C65.3445 76.2628 65.3445 76.2155 65.3209 76.1681C65.3209 76.1208 65.3209 76.0853 65.309 76.038C65.309 75.9907 65.2972 75.9433 65.2972 75.9078C65.2972 75.8605 65.2854 75.8132 65.2854 75.7612C65.2736 75.7493 65.2736 75.7257 65.2736 75.6902C65.2736 75.6784 65.2736 75.6547 65.2617 75.6428C65.2617 75.6073 65.2617 75.5956 65.2617 75.5601C65.2499 75.5482 65.2499 75.5245 65.2499 75.489C65.1198 74.8372 64.9731 74.2339 64.7767 73.6795C64.5803 73.1259 64.3697 72.636 64.1082 72.2123C63.8633 71.7722 63.5699 71.3972 63.26 71.0707C62.9346 70.7607 62.5916 70.5004 62.2 70.2887C61.8249 70.0769 61.4334 69.9301 61.0264 69.8651C60.6348 69.8059 60.2278 69.8178 59.8199 69.9006C59.4283 69.9834 59.0214 70.1455 58.5973 70.3573C58.1903 70.5856 57.7822 70.8955 57.3583 71.254L57.3246 71.2623ZM59.5755 85.0625C59.4122 85.2092 59.2336 85.3074 59.0703 85.389C58.8905 85.4719 58.7285 85.5192 58.5652 85.5523C58.402 85.5642 58.2387 85.5523 58.092 85.5169C57.9287 85.4695 57.782 85.4222 57.6188 85.3216C57.4721 85.227 57.3419 85.0932 57.2106 84.9631C57.0805 84.8164 56.9822 84.6532 56.8841 84.458C56.7894 84.2782 56.7043 84.0664 56.6238 83.838C56.5647 83.6097 56.5055 83.3648 56.4606 83.088C56.4251 82.8111 56.4014 82.5343 56.4014 82.2563C56.3896 81.9795 56.4014 81.7015 56.4133 81.4247C56.4251 81.1478 56.4723 80.8544 56.5315 80.5764C56.5907 80.283 56.6617 79.9896 56.7599 79.6962C56.8427 79.4028 56.9397 79.126 57.0533 78.8811C57.1716 78.6208 57.2816 78.3759 57.4117 78.1641C57.5418 77.9524 57.6886 77.7407 57.8353 77.5609C57.982 77.381 58.1452 77.2189 58.3239 77.0722C58.4871 76.9255 58.6658 76.8108 58.8291 76.7138C58.9923 76.631 59.1555 76.5671 59.3176 76.5505C59.4809 76.515 59.6441 76.515 59.8062 76.5505C59.9529 76.586 60.1162 76.6451 60.2629 76.7303C60.4262 76.8249 60.5563 76.9421 60.6864 77.0722C60.8165 77.2189 60.9313 77.3656 61.0283 77.5609C61.123 77.7407 61.2247 77.9358 61.2898 78.1641C61.3489 78.3925 61.4199 78.6528 61.4696 78.9308C61.5169 79.2076 61.5287 79.4856 61.5524 79.7625C61.5642 80.0559 61.5524 80.3327 61.5405 80.6261C61.5287 80.9195 61.4696 81.2129 61.4223 81.5063C61.3631 81.7997 61.2756 82.093 61.1939 82.403C61.0993 82.6964 60.9987 82.9733 60.884 83.2347C60.7657 83.4962 60.6391 83.7399 60.509 83.9517C60.3788 84.18 60.2321 84.3917 60.0854 84.5716C59.9221 84.7514 59.7589 84.9134 59.5803 85.0601" fill="#70BD42"/>
<path d="M41.9187 61.7413C41.5603 62.0832 41.2337 62.4748 40.9084 62.8996C40.5984 63.3396 40.3051 63.7963 40.0282 64.3015C39.7514 64.8066 39.5065 65.3449 39.2616 65.9318C39.0333 66.5186 38.8215 67.1382 38.6263 67.8066C38.4299 68.475 38.2678 69.1271 38.1377 69.763C38.0194 70.4148 37.9259 71.0509 37.8608 71.6868C37.8135 72.3067 37.7781 72.9421 37.8017 73.5615C37.8017 74.1814 37.8372 74.7842 37.9201 75.4037C38.0029 76.0071 38.0999 76.5608 38.23 77.083C38.3601 77.5882 38.5234 78.0448 38.7198 78.4523C38.915 78.8759 39.1279 79.2355 39.3882 79.5443C39.6331 79.8542 39.9099 80.1145 40.2199 80.3263C40.5298 80.5381 40.8551 80.6848 41.1817 80.7664C41.5082 80.8492 41.8335 80.861 42.1766 80.8019C42.5185 80.7545 42.8781 80.622 43.2366 80.4268C43.5951 80.2316 43.9535 79.9702 44.3286 79.6448C44.7036 79.3029 45.0621 78.9279 45.404 78.5032C45.7305 78.0797 46.0558 77.6065 46.3338 77.0849C46.6272 76.5632 46.904 76.0094 47.1655 75.4056C47.4104 74.7857 47.6387 74.134 47.8505 73.433C48.0457 72.7811 48.209 72.1451 48.3391 71.493C48.4693 70.8577 48.5674 70.2213 48.6325 69.6019C48.6916 68.9666 48.7272 68.3466 48.7272 67.7433C48.7153 67.14 48.6798 66.537 48.6088 65.9501C48.6088 65.9027 48.597 65.8672 48.597 65.8199C48.597 65.7844 48.597 65.7371 48.5852 65.7016C48.5852 65.6542 48.5852 65.6187 48.5734 65.5714C48.5734 65.5359 48.5734 65.5123 48.5615 65.4532C48.5615 65.4413 48.5615 65.4176 48.5615 65.4058C48.5615 65.3703 48.5497 65.3585 48.5497 65.3467C48.5497 65.3348 48.5497 65.3112 48.5497 65.2994C48.5497 65.2639 48.5379 65.252 48.5379 65.2402C48.4432 64.6534 48.3261 64.1151 48.1794 63.6261C48.0161 63.1375 47.8376 62.6975 47.6412 62.322C47.4294 61.9304 47.1845 61.6051 46.9242 61.3271C46.664 61.0668 46.3705 60.8384 46.0605 60.6586C45.734 60.4788 45.4087 60.3818 45.0656 60.3333C44.7391 60.2978 44.3972 60.3214 44.0553 60.4161C43.7134 60.4989 43.3704 60.661 43.0285 60.8893C42.67 61.1011 42.3115 61.3944 41.9518 61.7529L41.9187 61.7413ZM43.6473 74.1106C43.5006 74.2573 43.3539 74.3708 43.2072 74.437C43.0605 74.5317 42.9304 74.5838 42.7837 74.6169C42.6535 74.6288 42.5068 74.6288 42.3755 74.6169C42.2454 74.5814 42.1152 74.5341 41.9851 74.4537C41.8668 74.3827 41.7567 74.2738 41.6432 74.1602C41.5485 74.0419 41.4634 73.8988 41.3818 73.7367C41.299 73.5735 41.235 73.3783 41.1699 73.1819C41.1226 72.9701 41.0754 72.7418 41.0399 72.4969C41.028 72.252 40.9925 72.0083 40.9925 71.7634C40.9925 71.5019 40.9926 71.2583 41.028 70.9968C41.0635 70.7365 41.0871 70.475 41.1463 70.2301C41.1936 69.9533 41.2646 69.6918 41.3415 69.415C41.4243 69.1536 41.5048 68.8933 41.6018 68.665C41.6965 68.4201 41.8135 68.2084 41.9283 67.9966C42.0229 67.8002 42.1567 67.605 42.2868 67.4263C42.4169 67.2631 42.5483 67.0998 42.6938 66.9697C42.8405 66.823 42.9871 66.7248 43.1173 66.6278C43.264 66.545 43.4106 66.481 43.5408 66.4479C43.6875 66.4124 43.8176 66.4124 43.9478 66.4361C44.0779 66.4479 44.2093 66.4953 44.3394 66.5829C44.4695 66.6538 44.5842 66.7461 44.6978 66.8762C44.7925 66.9945 44.893 67.1211 44.9746 67.2844C45.0574 67.4476 45.1213 67.6262 45.1864 67.838C45.2574 68.0344 45.281 68.2616 45.3165 68.5065C45.352 68.7514 45.3757 69.0116 45.3757 69.2565C45.3876 69.5168 45.3757 69.7783 45.3402 70.0385C45.3284 70.3154 45.2929 70.5768 45.2219 70.8371C45.1746 71.1139 45.1036 71.3919 45.0267 71.6522C44.9439 71.929 44.8469 72.1905 44.7499 72.4342C44.6552 72.6625 44.5381 72.8908 44.4233 73.086C44.305 73.2978 44.195 73.493 44.0483 73.6563C43.9182 73.8361 43.7868 73.9828 43.6401 74.1129" fill="#70BD42"/>
<path d="M51.0971 29.788C50.7221 30.1795 50.3636 30.6196 50.0371 31.1084C49.6952 31.5817 49.4018 32.0868 49.1084 32.6246C48.815 33.1795 48.5535 33.7497 48.3098 34.3691C48.0649 34.9724 47.8367 35.6244 47.6415 36.309C47.4463 37.0106 47.2829 37.6785 47.1528 38.3306C47.0227 38.9825 46.9245 39.6348 46.876 40.2543C46.805 40.8896 46.7932 41.5097 46.805 42.113C46.8169 42.7163 46.876 43.303 46.9517 43.8899C47.0345 44.4767 47.1635 45.0149 47.2936 45.4876C47.4403 45.9762 47.6201 46.3843 47.8319 46.7592C48.0437 47.1343 48.272 47.4608 48.5488 47.721C48.8091 47.9825 49.119 48.1942 49.4456 48.3409C49.7875 48.4876 50.1305 48.5859 50.4724 48.6013C50.8309 48.6131 51.1894 48.5657 51.5491 48.4545C51.9075 48.3362 52.2825 48.1611 52.6575 47.8997C53.0491 47.6548 53.4396 47.3294 53.8312 46.9379C54.2228 46.5463 54.5978 46.1062 54.9563 45.6337C55.3147 45.1605 55.6412 44.6388 55.9512 44.0849C56.2611 43.5146 56.538 42.9113 56.7994 42.2752C57.0763 41.6399 57.3046 40.9547 57.5164 40.2375C57.7281 39.5525 57.8913 38.9006 58.0215 38.2485C58.1516 37.5801 58.2498 36.9443 58.3149 36.3247C58.374 35.7048 58.3977 35.0858 58.3977 34.4825C58.3858 33.8957 58.3504 33.3089 58.2676 32.7381C58.2676 32.6908 58.2558 32.6553 58.2558 32.6198C58.2439 32.5725 58.2439 32.537 58.2439 32.4897C58.232 32.4542 58.232 32.4305 58.232 32.3714C58.2202 32.3359 58.2202 32.3122 58.2202 32.253C58.2084 32.2412 58.2084 32.2176 58.2084 32.2057C58.2084 32.1939 58.2084 32.1703 58.1966 32.1348C58.1966 32.123 58.1966 32.0992 58.1966 32.0874C58.1966 32.0756 58.1966 32.0519 58.1847 32.0401C58.0901 31.4699 57.9399 30.9635 57.7766 30.5076C57.6133 30.0675 57.4181 29.6606 57.1898 29.334C56.9615 28.9921 56.7165 28.7141 56.4232 28.487C56.1463 28.2586 55.8364 28.0953 55.4945 27.9818C55.1526 27.8635 54.7929 27.8185 54.4345 27.8351C54.076 27.8469 53.7176 27.9297 53.3591 28.08C53.0007 28.2432 52.6256 28.455 52.2506 28.7318C51.8921 29.0087 51.5171 29.3518 51.1255 29.7753L51.0971 29.788ZM53.0492 41.6275C52.8859 41.7742 52.7392 41.9043 52.5925 42.0191C52.4292 42.1374 52.2825 42.1989 52.1358 42.2474C51.9891 42.3184 51.8425 42.3302 51.7123 42.3302C51.5656 42.3302 51.4189 42.2948 51.2887 42.2474C51.1586 42.1883 51.0273 42.1173 50.9303 42.0026C50.812 41.9079 50.7186 41.7742 50.6204 41.6275C50.5376 41.4808 50.4736 41.3176 50.4085 41.1224C50.3494 40.9272 50.2903 40.7154 50.2619 40.487C50.2264 40.2421 50.2146 40.0138 50.1909 39.7701C50.1909 39.5252 50.1909 39.265 50.2264 39.0201C50.2382 38.7587 50.2737 38.4984 50.3447 38.2381C50.392 37.9613 50.463 37.6998 50.5399 37.423C50.6227 37.1296 50.7197 36.8693 50.8167 36.6244C50.9113 36.3795 51.0285 36.1358 51.1433 35.9229C51.2616 35.6946 51.3881 35.4828 51.5183 35.303C51.665 35.1078 51.8117 34.9279 51.9584 34.7647C52.1216 34.6014 52.2683 34.4713 52.415 34.3577C52.5783 34.2394 52.725 34.1625 52.8551 34.1128C53.0184 34.0418 53.1485 34.0181 53.2952 34.0181C53.4419 34.0181 53.572 34.0537 53.7187 34.101C53.8488 34.1483 53.9802 34.2193 54.0937 34.3127C54.212 34.4074 54.3056 34.541 54.4038 34.6712C54.4866 34.8179 54.567 34.9811 54.632 35.1763C54.6912 35.3727 54.7503 35.5845 54.7787 35.8129C54.826 36.0577 54.8379 36.3014 54.8616 36.5463C54.8616 36.8066 54.8616 37.0515 54.8261 37.3283C54.8143 37.5898 54.7669 37.8501 54.7078 38.1269C54.6605 38.4038 54.5895 38.6817 54.496 38.9586C54.4132 39.2354 54.3162 39.5134 54.2192 39.7571C54.1246 40.0186 54.0074 40.2457 53.8773 40.474C53.759 40.6858 53.6324 40.8975 53.4857 41.0939C53.3555 41.2903 53.2088 41.469 53.0456 41.6322" fill="#70BD42"/>
<path d="M79.8556 66.4366C79.2523 66.3065 78.682 66.2402 78.16 66.2402C77.6217 66.2402 77.1166 66.2876 76.6438 66.4035C76.1706 66.5336 75.7305 66.7134 75.3233 66.9583C74.9152 67.2032 74.5413 67.512 74.1816 67.887C73.8397 68.2786 73.5464 68.6856 73.318 69.1423C73.0897 69.599 72.9099 70.0876 72.7963 70.6096C72.678 71.1479 72.6331 71.7015 72.6331 72.3051C72.6331 72.9085 72.7041 73.5603 72.8295 74.2451C72.9596 74.93 73.1394 75.5983 73.3678 76.2504C73.5961 76.9022 73.8729 77.5545 74.1994 78.1741C74.5413 78.8093 74.9329 79.4294 75.3565 80.0163C75.7965 80.6197 76.2698 81.2064 76.8075 81.7769C77.3623 82.3472 77.8994 82.8535 78.454 83.3094C79.0076 83.7661 79.5791 84.1577 80.1657 84.4996C80.736 84.8415 81.3228 85.1195 81.9102 85.3313C82.5135 85.5596 83.1166 85.7229 83.736 85.8199C84.3394 85.9382 84.9097 85.9666 85.448 85.9382C85.9863 85.9263 86.4914 85.8199 86.9478 85.6613C87.4045 85.5146 87.8446 85.3029 88.2195 85.0261C88.6111 84.7327 88.9695 84.3908 89.296 83.9992C89.5894 83.6076 89.8343 83.2006 90.0296 82.7765C90.2248 82.3364 90.3715 81.8798 90.4697 81.3907C90.5525 80.9021 90.5998 80.3804 90.5998 79.842C90.588 79.3037 90.5406 78.7334 90.4199 78.1302C90.4199 78.0829 90.4081 78.0474 90.4081 78C90.4081 77.9527 90.3963 77.9173 90.3726 77.87C90.3726 77.8226 90.3608 77.7871 90.3608 77.7516C90.349 77.7043 90.349 77.657 90.3253 77.6215C90.3253 77.6097 90.3253 77.5742 90.3135 77.5624C90.3135 77.5505 90.3135 77.5268 90.3135 77.5032C90.3017 77.4913 90.3017 77.4677 90.3017 77.4559C90.3017 77.4204 90.2898 77.4086 90.2898 77.3967C90.1431 76.7603 89.9479 76.1414 89.7196 75.5381C89.4913 74.9513 89.2144 74.348 88.9045 73.7774C88.5779 73.2072 88.2195 72.6357 87.8125 72.0982C87.4044 71.5445 86.9643 71.0063 86.4593 70.468C85.9542 69.9297 85.4324 69.4411 84.9106 69.0007C84.3889 68.5606 83.8506 68.1856 83.3129 67.8437C82.7592 67.5172 82.1879 67.2238 81.6337 66.9954C81.0635 66.7671 80.4767 66.5874 79.8731 66.4572L79.8556 66.4366ZM82.5956 79.8907C82.3507 79.8434 82.1224 79.7724 81.8787 79.6955C81.6504 79.6008 81.4055 79.4837 81.1772 79.3536C80.9489 79.2069 80.7371 79.0602 80.5087 78.8803C80.2804 78.7005 80.0686 78.4888 79.8569 78.277C79.6451 78.0487 79.4653 77.8203 79.2866 77.5755C79.1068 77.3471 78.9601 77.1022 78.83 76.8585C78.6999 76.5983 78.5851 76.3534 78.4881 76.092C78.3934 75.8317 78.3248 75.5702 78.2763 75.2933C78.229 75.0331 78.1935 74.7716 78.1935 74.5433C78.1817 74.2984 78.2054 74.0701 78.2409 73.8583C78.2882 73.6465 78.3591 73.4502 78.436 73.2715C78.5307 73.0917 78.6478 72.9296 78.7779 72.7663C78.908 72.6196 79.0714 72.4896 79.2346 72.3748C79.3979 72.2802 79.5611 72.1949 79.7563 72.1464C79.9527 72.0991 80.1479 72.0637 80.3597 72.0637C80.588 72.0637 80.7998 72.0755 81.0447 72.1464C81.2896 72.1819 81.5179 72.2648 81.7616 72.3417C81.9899 72.4363 82.2183 72.5534 82.4466 72.6836C82.6584 72.8137 82.8867 72.977 83.0984 73.1568C83.3102 73.3366 83.5219 73.5318 83.7349 73.7601C83.9466 73.9719 84.1253 74.2002 84.2886 74.4286C84.4684 74.6569 84.6151 74.9018 84.7452 75.1455C84.8754 75.3738 84.9902 75.634 85.0718 75.8789C85.1664 76.1392 85.2515 76.3841 85.3001 76.6609C85.3474 76.9212 85.3829 77.1661 85.3947 77.411C85.3947 77.6559 85.3828 77.8842 85.3473 78.096C85.3119 78.2912 85.2527 78.5041 85.1676 78.6828C85.0847 78.8626 84.9724 79.0413 84.8411 79.2045C84.7109 79.3512 84.5642 79.4979 84.401 79.5961C84.2543 79.7144 84.0756 79.7913 83.8792 79.841C83.6994 79.9001 83.5042 79.9356 83.2759 79.9356C83.0641 79.9475 82.8358 79.9357 82.5909 79.8883" fill="#007DC5"/>
<path d="M71.8995 26.3967C71.3292 26.2335 70.791 26.1199 70.2854 26.0548C69.7803 25.9838 69.3071 25.9838 68.8508 26.043C68.3941 26.0903 67.9706 26.2062 67.5791 26.3683C67.1875 26.5315 66.8291 26.7599 66.4872 27.0367C66.1606 27.3136 65.8673 27.64 65.6555 27.9819C65.4106 28.3404 65.2485 28.732 65.1337 29.172C65.0154 29.5955 64.9539 30.0687 64.9539 30.574C64.9421 31.0792 64.9894 31.6341 65.1006 32.2206C65.2189 32.8074 65.3609 33.3941 65.5738 33.965C65.7856 34.5352 66.0305 35.1067 66.3405 35.6606C66.6504 36.2308 66.9923 36.7856 67.4005 37.3398C67.7921 37.878 68.2487 38.4317 68.7537 38.97C69.2588 39.5083 69.764 39.9803 70.2697 40.421C70.7915 40.8611 71.3297 41.2692 71.8674 41.611C72.4223 41.9529 72.9594 42.2475 73.5304 42.4912C74.084 42.7527 74.6554 42.9479 75.2259 43.0946C75.8127 43.2579 76.3509 43.3548 76.8561 43.3879C77.3778 43.4234 77.8511 43.3998 78.2908 43.317C78.7309 43.2342 79.139 43.1052 79.5298 42.9088C79.9048 42.729 80.2467 42.4853 80.5567 42.1753C80.8501 41.8819 81.095 41.572 81.2736 41.2301C81.4688 40.8882 81.6155 40.5131 81.7137 40.1216C81.8084 39.7146 81.8604 39.2899 81.8604 38.8337C81.8722 38.3771 81.8249 37.8885 81.7302 37.3664C81.7302 37.3309 81.7302 37.3072 81.7184 37.2481C81.7184 37.2126 81.7066 37.189 81.7066 37.1535C81.7066 37.1061 81.6948 37.0706 81.6948 37.0351C81.6829 36.9996 81.683 36.9641 81.6593 36.9405C81.6593 36.9286 81.6593 36.905 81.6593 36.8813C81.6593 36.8695 81.6475 36.8459 81.6475 36.834C81.6475 36.8222 81.6475 36.7985 81.6357 36.7866C81.6357 36.7748 81.6357 36.7512 81.6357 36.7394C81.5055 36.1845 81.3257 35.6474 81.1305 35.109C80.9187 34.5873 80.6572 34.0656 80.3638 33.544C80.087 33.0223 79.7439 32.5171 79.3689 32.0116C78.9939 31.5064 78.5703 31.0013 78.1136 30.4954C77.6403 29.9902 77.1683 29.517 76.6625 29.0933C76.1739 28.6698 75.6676 28.2782 75.1464 27.9363C74.6412 27.6109 74.1029 27.3164 73.5651 27.0562C73.0268 26.7947 72.4731 26.5829 71.9185 26.4043L71.8995 26.3967ZM74.2661 37.9957C74.0377 37.9365 73.8094 37.8489 73.5811 37.7507C73.3693 37.6324 73.141 37.5224 72.9292 37.3757C72.7175 37.2455 72.5057 37.0823 72.3093 36.9191C72.0976 36.7392 71.9011 36.544 71.6893 36.3323C71.4941 36.1205 71.3143 35.9087 71.1676 35.6969C71.0044 35.4852 70.8577 35.2569 70.7441 35.0286C70.614 34.8168 70.5158 34.5884 70.4342 34.3601C70.3514 34.1318 70.2875 33.9035 70.239 33.6751C70.2035 33.4468 70.168 33.2351 70.168 33.0233C70.168 32.8269 70.2035 32.6317 70.239 32.4685C70.2863 32.2886 70.3573 32.1419 70.4342 31.9952C70.5288 31.8485 70.646 31.7184 70.7761 31.6036C70.9062 31.4853 71.0529 31.3918 71.1996 31.3268C71.3629 31.2676 71.5261 31.2085 71.7048 31.1801C71.8846 31.1683 72.0797 31.1683 72.2749 31.1801C72.4867 31.2156 72.6985 31.2392 72.9434 31.3268C73.1717 31.3978 73.3835 31.4735 73.6119 31.5717C73.8236 31.6664 74.0353 31.8 74.2471 31.9302C74.4589 32.0603 74.6706 32.2236 74.867 32.4034C75.0622 32.5666 75.2587 32.7619 75.4539 32.9736C75.6491 33.1688 75.8289 33.3818 75.9756 33.5935C76.1388 33.8053 76.2689 34.0171 76.3991 34.2454C76.5174 34.4572 76.6109 34.6689 76.6925 34.8973C76.7753 35.109 76.8391 35.3373 76.8876 35.5656C76.935 35.7939 76.9705 36.0223 76.9705 36.2175C76.9705 36.4127 76.9587 36.6091 76.9232 36.7724C76.8759 36.9522 76.8285 37.1143 76.7268 37.261C76.644 37.4077 76.547 37.5378 76.4169 37.6513C76.2867 37.7815 76.14 37.8631 75.9933 37.9448C75.8466 38.0157 75.6833 38.0749 75.5047 38.108C75.3249 38.1199 75.1297 38.1435 74.9179 38.1199C74.7215 38.108 74.5098 38.0607 74.2661 37.9897" fill="#007DC5"/>
<path d="M115.102 74.0007C114.597 73.906 114.124 73.854 113.684 73.854C113.244 73.854 112.837 73.925 112.461 74.0338C112.086 74.1639 111.728 74.3438 111.418 74.5887C111.092 74.817 110.798 75.127 110.537 75.4854C110.292 75.8439 110.081 76.2355 109.917 76.659C109.771 77.0825 109.657 77.5392 109.608 78.0285C109.56 78.5337 109.56 79.0554 109.608 79.6098C109.655 80.18 109.754 80.7668 109.917 81.4031C110.081 82.0384 110.276 82.6585 110.504 83.2616C110.749 83.865 111.026 84.4518 111.336 85.0387C111.662 85.6089 112.021 86.1803 112.428 86.7179C112.836 87.2715 113.276 87.8098 113.765 88.3319C114.238 88.837 114.727 89.3103 115.216 89.7176C115.721 90.1412 116.211 90.4842 116.715 90.7941C117.221 91.1041 117.71 91.3478 118.232 91.5442C118.72 91.7394 119.227 91.8862 119.748 91.9678C120.253 92.0506 120.726 92.086 121.166 92.0506C121.606 92.0151 122.014 91.9204 122.389 91.7737C122.764 91.627 123.089 91.4153 123.399 91.1538C123.693 90.877 123.969 90.5504 124.198 90.1754C124.41 89.817 124.589 89.442 124.719 89.0338C124.85 88.6269 124.931 88.2021 124.964 87.7459C125.012 87.2727 125.012 86.8007 124.964 86.2949C124.917 85.7897 124.834 85.2514 124.704 84.6973C124.692 84.6618 124.669 84.6146 124.669 84.5791C124.657 84.5436 124.633 84.4962 124.633 84.4607C124.621 84.4134 124.621 84.3779 124.598 84.3424C124.598 84.2951 124.586 84.2597 124.562 84.2242C124.562 84.2123 124.562 84.1886 124.562 84.1531C124.55 84.1413 124.55 84.1177 124.55 84.1058C124.538 84.094 124.538 84.0585 124.538 84.0348C124.527 84.023 124.527 83.9993 124.527 83.9875C124.347 83.4007 124.152 82.8305 123.907 82.2757C123.678 81.722 123.402 81.1671 123.108 80.6454C122.798 80.1071 122.456 79.5854 122.081 79.0804C121.706 78.5752 121.299 78.0854 120.842 77.5967C120.386 77.1081 119.929 76.6514 119.457 76.26C118.983 75.8518 118.511 75.5099 118.038 75.2C117.565 74.9066 117.076 74.6617 116.587 74.4499C116.099 74.2547 115.609 74.0914 115.104 73.9767L115.102 74.0007ZM118.364 86.4321C118.153 86.3966 117.956 86.3374 117.744 86.2688C117.549 86.186 117.336 86.0736 117.141 85.9589C116.945 85.8287 116.749 85.682 116.554 85.5353C116.359 85.372 116.179 85.1768 115.984 84.9816C115.789 84.7699 115.609 84.5581 115.462 84.3464C115.299 84.1346 115.152 83.9062 115.022 83.6779C114.892 83.4496 114.794 83.2212 114.696 82.9775C114.601 82.7326 114.516 82.489 114.451 82.2441C114.392 81.9992 114.356 81.7554 114.321 81.5425C114.309 81.3141 114.309 81.1024 114.321 80.9072C114.332 80.7108 114.392 80.5322 114.439 80.3689C114.498 80.1891 114.586 80.027 114.684 79.8803C114.778 79.7337 114.896 79.6188 115.026 79.5218C115.156 79.4272 115.286 79.3421 115.433 79.2936C115.596 79.2344 115.759 79.2107 115.938 79.1989C116.101 79.1989 116.296 79.2108 116.508 79.2699C116.703 79.3054 116.915 79.3645 117.111 79.4497C117.307 79.5325 117.503 79.6295 117.698 79.7597C117.893 79.878 118.09 80.0199 118.268 80.1832C118.464 80.3464 118.643 80.5251 118.839 80.7215C119.019 80.9167 119.197 81.1296 119.36 81.3414C119.507 81.5531 119.654 81.7649 119.769 81.9932C119.899 82.2216 120.013 82.4499 120.11 82.6782C120.205 82.9065 120.274 83.1514 120.355 83.3951C120.403 83.64 120.45 83.8684 120.485 84.0956C120.497 84.3239 120.521 84.5356 120.497 84.732C120.485 84.9272 120.45 85.1071 120.379 85.2857C120.332 85.4655 120.249 85.6276 120.151 85.7743C120.056 85.921 119.939 86.0357 119.824 86.1493C119.694 86.244 119.564 86.3292 119.416 86.3777C119.269 86.4368 119.106 86.4722 118.927 86.4959C118.748 86.5077 118.552 86.4959 118.357 86.4486" fill="#007DC5"/>
<path d="M105.81 36.7001C105.336 36.5534 104.881 36.4552 104.457 36.4233C104.033 36.376 103.642 36.376 103.267 36.4351C102.908 36.5061 102.565 36.6149 102.256 36.777C101.946 36.9403 101.669 37.1686 101.408 37.4454C101.148 37.7222 100.951 38.0156 100.788 38.3587C100.625 38.7006 100.511 39.0757 100.462 39.5004C100.391 39.9074 100.379 40.3487 100.414 40.8208C100.461 41.3106 100.544 41.8158 100.674 42.3697C100.805 42.908 100.984 43.4462 101.196 43.9998C101.408 44.5216 101.669 45.0599 101.963 45.5813C102.256 46.103 102.598 46.6082 102.973 47.1301C103.332 47.6187 103.756 48.125 104.212 48.6136C104.652 49.1022 105.125 49.5589 105.582 49.9505C106.038 50.3586 106.51 50.7005 106.984 51.0105C107.457 51.337 107.929 51.5973 108.418 51.8091C108.891 52.0374 109.38 52.216 109.869 52.3473C110.358 52.4656 110.814 52.5425 111.239 52.5757C111.662 52.5875 112.054 52.5638 112.412 52.481C112.771 52.3982 113.097 52.2527 113.391 52.0575C113.684 51.8777 113.946 51.6339 114.189 51.3406C114.401 51.0637 114.58 50.7537 114.711 50.4272C114.841 50.1007 114.939 49.7588 114.988 49.3672C115.035 48.9922 115.059 48.5853 115.023 48.1445C114.988 47.7209 114.905 47.2642 114.795 46.7751C114.795 46.7396 114.783 46.7041 114.783 46.6805C114.771 46.645 114.771 46.6213 114.748 46.5621C114.748 46.5266 114.736 46.5029 114.736 46.4674C114.724 46.432 114.724 46.4083 114.7 46.3729C114.7 46.361 114.7 46.3373 114.688 46.3255C114.688 46.3136 114.688 46.29 114.677 46.2782C114.677 46.2663 114.677 46.2427 114.677 46.2309C114.665 46.219 114.665 46.1954 114.665 46.1836C114.518 45.6784 114.338 45.1732 114.11 44.6675C113.898 44.1777 113.653 43.6891 113.376 43.2002C113.083 42.7269 112.773 42.2549 112.431 41.7819C112.073 41.3087 111.681 40.852 111.273 40.3961C110.833 39.9228 110.409 39.4994 109.969 39.1082C109.529 38.7167 109.072 38.3747 108.616 38.0648C108.159 37.7548 107.702 37.4946 107.246 37.2662C106.773 37.0379 106.301 36.8592 105.828 36.7113L105.81 36.7001ZM108.681 47.5692C108.486 47.4982 108.289 47.439 108.094 47.3408C107.899 47.258 107.703 47.1456 107.524 47.0308C107.344 46.9007 107.149 46.754 106.969 46.6074C106.789 46.4441 106.611 46.2654 106.431 46.0856C106.251 45.8892 106.089 45.694 105.942 45.4988C105.795 45.287 105.665 45.0906 105.534 44.8789C105.416 44.6671 105.322 44.4719 105.241 44.259C105.146 44.0472 105.077 43.8355 105.029 43.6071C104.97 43.3954 104.934 43.1836 104.911 43.0037C104.899 42.8085 104.899 42.6287 104.922 42.4654C104.934 42.3022 104.982 42.1555 105.041 42.0253C105.1 41.8786 105.187 41.7639 105.286 41.6503C105.38 41.532 105.497 41.4386 105.628 41.3735C105.746 41.3143 105.889 41.2552 106.036 41.2268C106.182 41.1913 106.329 41.1913 106.509 41.215C106.672 41.2268 106.851 41.2623 107.047 41.3096C107.242 41.3687 107.439 41.4397 107.634 41.5379C107.814 41.6207 108.009 41.7344 108.188 41.8645C108.367 41.9828 108.546 42.1247 108.726 42.288C108.906 42.4347 109.084 42.6145 109.264 42.8097C109.444 42.9895 109.591 43.1847 109.737 43.3799C109.884 43.5763 110.014 43.7715 110.129 43.9667C110.259 44.1785 110.357 44.3749 110.439 44.5866C110.522 44.7984 110.602 44.9948 110.651 45.222C110.71 45.4337 110.745 45.6301 110.769 45.8253C110.781 46.0217 110.781 46.2003 110.769 46.3636C110.757 46.5268 110.722 46.6736 110.651 46.8203C110.603 46.967 110.521 47.0805 110.422 47.1953C110.328 47.3136 110.211 47.407 110.096 47.4886C109.978 47.5478 109.836 47.607 109.689 47.6354C109.559 47.6709 109.396 47.6709 109.216 47.6709C109.052 47.659 108.874 47.6235 108.677 47.5762" fill="#007DC5"/>
<path d="M52.7435 112.297C52.1082 112.238 51.4719 112.202 50.8198 112.178C50.168 112.178 49.5156 112.19 48.8309 112.238C48.1624 112.285 47.4777 112.356 46.7767 112.449C46.0752 112.568 45.3584 112.694 44.6411 112.841C43.9242 113.004 43.2553 113.166 42.6195 113.346C41.9842 113.541 41.3967 113.738 40.8588 113.966C40.304 114.178 39.8154 114.406 39.359 114.651C38.9023 114.896 38.4953 115.156 38.1362 115.433C37.7778 115.71 37.4844 115.988 37.2561 116.248C37.0443 116.508 36.881 116.753 36.7994 117.015C36.7166 117.26 36.7166 117.503 36.7639 117.748C36.8231 117.977 36.9591 118.205 37.1389 118.433C37.3341 118.645 37.5956 118.857 37.889 119.037C38.1824 119.216 38.5409 119.363 38.949 119.51C39.3406 119.64 39.7973 119.755 40.3021 119.852C40.8072 119.934 41.3621 120.015 41.9813 120.047C42.6012 120.094 43.204 120.13 43.8398 120.13C44.4597 120.13 45.0788 120.094 45.7309 120.059C46.3674 120.011 47.0189 119.929 47.671 119.83C48.3229 119.736 48.9915 119.619 49.6762 119.472C50.3115 119.342 50.9153 119.195 51.4858 119.032C52.0561 118.869 52.5778 118.69 53.0835 118.51C53.5887 118.33 54.0454 118.119 54.4856 117.923C54.9257 117.695 55.3173 117.483 55.6919 117.238C55.7274 117.227 55.7393 117.203 55.7748 117.191C55.7866 117.179 55.8221 117.156 55.8576 117.144C55.8694 117.132 55.8931 117.108 55.9168 117.096C55.9286 117.085 55.964 117.061 55.9877 117.049C55.9995 117.049 56.0232 117.037 56.035 117.014C56.035 117.014 56.0469 117.014 56.0706 117.002C56.0706 117.002 56.0824 116.99 56.106 116.99C56.106 116.978 56.1179 116.978 56.1415 116.954C56.4834 116.71 56.778 116.449 57.0051 116.204C57.2334 115.96 57.3967 115.716 57.5103 115.487C57.6049 115.243 57.657 115.014 57.6404 114.771C57.605 114.542 57.5221 114.314 57.3801 114.086C57.2334 113.841 57.0217 113.629 56.7449 113.45C56.4846 113.255 56.1581 113.075 55.7665 112.929C55.3749 112.782 54.9348 112.652 54.4297 112.553C53.9245 112.435 53.3696 112.358 52.7504 112.292L52.7435 112.297ZM45.1533 117.802C44.9084 117.791 44.6967 117.755 44.485 117.72C44.2898 117.672 44.1099 117.625 43.9467 117.573C43.7834 117.514 43.6533 117.443 43.5232 117.378C43.4049 117.295 43.3113 117.231 43.2463 117.133C43.1634 117.05 43.1161 116.953 43.0996 116.856C43.0877 116.761 43.0877 116.661 43.1351 116.563C43.1705 116.468 43.2297 116.367 43.3303 116.253C43.4131 116.158 43.5255 116.041 43.6888 115.943C43.8355 115.824 43.9822 115.731 44.1774 115.633C44.3572 115.538 44.5524 115.437 44.7641 115.356C44.9759 115.273 45.2208 115.193 45.4657 115.128C45.7106 115.045 45.9709 114.981 46.2643 114.916C46.5411 114.868 46.8344 114.821 47.0959 114.769C47.3727 114.734 47.6496 114.71 47.911 114.686C48.1879 114.674 48.4494 114.651 48.7096 114.651C48.9699 114.651 49.2148 114.663 49.4597 114.698C49.7046 114.71 49.9329 114.745 50.1447 114.793C50.3399 114.828 50.5196 114.876 50.6829 114.939C50.8296 114.987 50.9763 115.058 51.0899 115.135C51.2082 115.217 51.2851 115.298 51.3502 115.38C51.4212 115.474 51.4449 115.575 51.4685 115.673C51.4803 115.768 51.4684 115.868 51.433 115.966C51.3856 116.061 51.3147 116.162 51.2212 116.26C51.1266 116.378 51.0095 116.471 50.8628 116.57C50.6995 116.688 50.5362 116.781 50.3576 116.88C50.1778 116.962 49.9826 117.059 49.7708 117.14C49.5591 117.223 49.3307 117.303 49.0858 117.368C48.841 117.427 48.5807 117.498 48.3027 117.563C48.0258 117.623 47.749 117.682 47.4875 117.71C47.2107 117.758 46.9492 117.769 46.6889 117.793C46.4287 117.828 46.1673 117.828 45.907 117.828C45.6621 117.828 45.4018 117.817 45.157 117.793" fill="#EE3023"/>
<path d="M81.7628 91.3148C81.1109 91.2202 80.4423 91.1515 79.7412 91.1184C79.0397 91.0829 78.3229 91.0829 77.5893 91.1184C76.8392 91.1539 76.0894 91.2367 75.3068 91.3302C74.5402 91.4485 73.7418 91.5904 72.9267 91.7703C72.1115 91.9501 71.3452 92.1453 70.6116 92.3737C69.8781 92.5854 69.1933 92.8303 68.5574 93.1071C67.9221 93.3674 67.3347 93.6454 66.7968 93.9542C66.2419 94.2641 65.7368 94.5906 65.2806 94.9325C64.8239 95.2744 64.4489 95.6175 64.1389 95.9594C63.8455 96.2847 63.6172 96.6113 63.4871 96.9213C63.3404 97.2478 63.2587 97.5565 63.2753 97.8665C63.2753 98.1764 63.3581 98.4864 63.5202 98.7798C63.6669 99.0732 63.8952 99.35 64.172 99.5783C64.4489 99.8232 64.792 100.035 65.1824 100.23C65.5906 100.41 66.046 100.572 66.5844 100.703C67.0896 100.834 67.6764 100.948 68.3125 101.029C68.9644 101.112 69.6167 101.176 70.2852 101.192C70.9536 101.204 71.6219 101.192 72.323 101.157C73.0245 101.109 73.725 101.038 74.4586 100.928C75.1921 100.834 75.926 100.7 76.6922 100.537C77.4091 100.373 78.078 100.211 78.7301 100.015C79.3819 99.8197 79.9854 99.6233 80.5723 99.395C81.1426 99.1833 81.6974 98.9384 82.2188 98.6781C82.724 98.4178 83.2138 98.1397 83.6861 97.8463C83.6979 97.8345 83.7334 97.8109 83.7689 97.7754C83.8044 97.7636 83.8281 97.7399 83.8636 97.7281C83.899 97.6926 83.9345 97.6807 83.9581 97.6571C83.97 97.6216 84.0173 97.6098 84.041 97.598C84.0528 97.598 84.0765 97.5861 84.0883 97.5625C84.1001 97.5625 84.1238 97.5507 84.1238 97.527C84.1356 97.527 84.1593 97.5151 84.1712 97.5151C84.183 97.5033 84.2066 97.4796 84.2185 97.4796C84.6585 97.1531 85.017 96.8444 85.3269 96.5344C85.6369 96.2245 85.8818 95.9144 86.0605 95.6045C86.2237 95.3111 86.3373 95.0012 86.3704 94.6912C86.4059 94.3978 86.3704 94.0878 86.2757 93.7944C86.1811 93.4845 86.0155 93.1911 85.7706 92.9308C85.5258 92.6859 85.2323 92.4422 84.8573 92.2292C84.4657 92.034 84.0256 91.8377 83.5205 91.691C82.9988 91.5278 82.412 91.4141 81.7599 91.2994L81.7628 91.3148ZM72.2552 98.2118C71.9938 98.1763 71.7667 98.129 71.5537 98.0651C71.342 98.0178 71.1633 97.9468 71.0001 97.8699C70.8534 97.7871 70.7066 97.7067 70.6084 97.6097C70.4901 97.515 70.4132 97.3979 70.3636 97.2831C70.3044 97.153 70.2807 97.0382 70.2807 96.9081C70.2807 96.7898 70.3162 96.6632 70.3754 96.5331C70.4345 96.4029 70.5221 96.2728 70.6522 96.1415C70.7823 96.0114 70.929 95.8801 71.1088 95.7334C71.304 95.6032 71.5004 95.4731 71.7122 95.3583C71.924 95.24 72.1689 95.13 72.4138 95.0318C72.6741 94.9371 72.9355 94.8366 73.2289 94.755C73.5058 94.6603 73.8157 94.5752 74.1422 94.5101C74.4521 94.4391 74.7622 94.3918 75.0721 94.3468C75.3821 94.2995 75.6754 94.264 75.9688 94.2521C76.2622 94.2403 76.5391 94.2403 76.8171 94.2521C77.0939 94.264 77.372 94.2877 77.6322 94.335C77.8925 94.3705 78.1208 94.4178 78.3337 94.4817C78.5455 94.5408 78.7242 94.6118 78.872 94.6934C79.0353 94.7762 79.1654 94.8568 79.2636 94.9703C79.3582 95.065 79.4269 95.182 79.4754 95.2968C79.5227 95.4269 79.5582 95.5417 79.5345 95.6718C79.5227 95.802 79.4872 95.9167 79.4044 96.0468C79.3334 96.177 79.2411 96.3071 79.1276 96.4219C78.9974 96.552 78.8341 96.6833 78.6543 96.83C78.4591 96.9602 78.2628 97.075 78.0344 97.1885C77.8227 97.3068 77.5943 97.4168 77.3494 97.5138C77.0892 97.6085 76.8278 97.709 76.5509 97.7907C76.2741 97.8735 75.9807 97.9539 75.6707 98.019C75.3608 98.0782 75.0508 98.1373 74.7574 98.1823C74.464 98.2296 74.1706 98.2532 73.8772 98.2651C73.6003 98.2769 73.3224 98.3005 73.0455 98.2769C72.7687 98.2769 72.5073 98.2414 72.247 98.2178" fill="#EE3023"/>
<path d="M89.6699 115.996C89.1482 115.949 88.6099 115.914 88.0395 115.914C87.4847 115.902 86.898 115.926 86.3115 115.961C85.7082 116.008 85.0888 116.079 84.4529 116.173C83.8176 116.267 83.1651 116.385 82.4966 116.531C81.8282 116.661 81.1924 116.825 80.5892 116.988C80.0024 117.168 79.4322 117.346 78.91 117.543C78.3717 117.738 77.8831 117.95 77.4265 118.178C76.9698 118.39 76.5297 118.618 76.1385 118.878C75.7635 119.123 75.4215 119.352 75.1601 119.595C74.8986 119.824 74.7034 120.052 74.5567 120.28C74.4266 120.509 74.345 120.72 74.3284 120.932C74.3166 121.144 74.3639 121.356 74.4751 121.552C74.5934 121.747 74.7366 121.927 74.9483 122.09C75.1601 122.254 75.4369 122.4 75.7469 122.514C76.0568 122.632 76.4153 122.726 76.8388 122.807C77.247 122.89 77.719 122.954 78.241 123.003C78.7462 123.038 79.2844 123.05 79.8222 123.05C80.3771 123.05 80.9307 123.038 81.5014 122.991C82.0717 122.943 82.6585 122.872 83.2622 122.779C83.849 122.696 84.4685 122.584 85.1044 122.452C85.6912 122.322 86.2615 122.192 86.8 122.044C87.3383 121.898 87.8434 121.734 88.3323 121.571C88.8209 121.391 89.2776 121.213 89.7019 121.033C90.1419 120.838 90.5501 120.641 90.9408 120.413C90.9763 120.401 90.9882 120.377 91.0237 120.365C91.0592 120.354 91.071 120.354 91.1065 120.33C91.1183 120.318 91.1538 120.295 91.1657 120.283C91.2012 120.271 91.2248 120.247 91.2484 120.235C91.2603 120.235 91.2839 120.224 91.2957 120.224C91.2957 120.212 91.3076 120.212 91.3313 120.212C91.3431 120.2 91.3431 120.2 91.3668 120.176C91.3786 120.176 91.4022 120.164 91.4022 120.164C91.7773 119.936 92.1038 119.708 92.3641 119.496C92.6255 119.268 92.8373 119.056 92.984 118.828C93.1472 118.616 93.2443 118.404 93.2774 118.208C93.3247 117.996 93.3129 117.784 93.2419 117.588C93.1828 117.376 93.0467 117.18 92.8669 117.018C92.6717 116.838 92.4434 116.691 92.15 116.561C91.84 116.431 91.4815 116.316 91.0745 116.219C90.6664 116.136 90.211 116.056 89.6724 116.007L89.6699 115.996ZM81.6025 120.98C81.4073 120.968 81.2109 120.932 81.0488 120.897C80.8855 120.861 80.7389 120.814 80.6088 120.767C80.4905 120.719 80.3804 120.648 80.2988 120.587C80.216 120.528 80.1521 120.457 80.1189 120.375C80.0716 120.292 80.0716 120.212 80.0716 120.13C80.0835 120.035 80.119 119.95 80.19 119.87C80.2373 119.775 80.3201 119.675 80.4348 119.593C80.5295 119.498 80.6797 119.398 80.8264 119.3C80.9896 119.205 81.153 119.12 81.3482 119.023C81.528 118.94 81.7232 118.859 81.9349 118.778C82.1301 118.719 82.3584 118.631 82.6033 118.566C82.8316 118.495 83.092 118.436 83.3369 118.386C83.6137 118.315 83.8586 118.292 84.1189 118.24C84.3638 118.204 84.6074 118.192 84.8523 118.157C85.0806 118.145 85.309 118.145 85.5373 118.145C85.7656 118.145 85.9774 118.145 86.1891 118.18C86.4009 118.192 86.5973 118.228 86.7594 118.263C86.9227 118.299 87.0693 118.346 87.1829 118.393C87.313 118.441 87.4113 118.488 87.4763 118.573C87.5591 118.644 87.623 118.72 87.6396 118.785C87.6869 118.88 87.6869 118.965 87.6751 119.046C87.6632 119.129 87.6277 119.226 87.5567 119.307C87.4976 119.401 87.4101 119.486 87.2965 119.583C87.1782 119.666 87.0516 119.763 86.9049 119.86C86.7416 119.955 86.5784 120.04 86.3832 120.137C86.2034 120.22 86.0082 120.3 85.7964 120.365C85.6012 120.448 85.3729 120.512 85.1446 120.577C84.9162 120.648 84.6713 120.707 84.411 120.757C84.1508 120.804 83.9059 120.852 83.661 120.887C83.4161 120.923 83.1724 120.946 82.944 120.97C82.7157 121.006 82.4874 121.006 82.2591 121.006C82.0473 121.006 81.819 121.006 81.6072 120.994" fill="#EE3023"/>
<path d="M66.422 102.4C65.7867 102.318 65.1178 102.27 64.4494 102.254C63.7809 102.242 63.0962 102.254 62.3952 102.289C61.6783 102.337 60.9605 102.408 60.2269 102.518C59.4934 102.612 58.7434 102.762 57.9771 102.926C57.2105 103.089 56.4936 103.268 55.8088 103.479C55.1404 103.676 54.5046 103.903 53.9177 104.131C53.3309 104.376 52.7926 104.636 52.2874 104.898C51.7988 105.175 51.3422 105.468 50.9344 105.778C50.5262 106.088 50.2009 106.381 49.9394 106.691C49.6792 106.968 49.4993 107.262 49.3845 107.54C49.2899 107.833 49.2379 108.11 49.2663 108.371C49.3136 108.648 49.4129 108.909 49.5928 109.17C49.7726 109.415 50.0163 109.658 50.3097 109.855C50.5865 110.066 50.9462 110.246 51.3366 110.41C51.7447 110.556 52.2002 110.703 52.7224 110.817C53.2276 110.911 53.7978 111.012 54.4342 111.077C55.0541 111.136 55.6894 111.172 56.3415 111.172C56.9768 111.183 57.6295 111.171 58.2979 111.124C58.9663 111.077 59.651 111.006 60.3358 110.912C61.0208 110.818 61.7215 110.684 62.4387 110.521C63.1237 110.391 63.7594 110.227 64.3625 110.048C64.9659 109.868 65.5361 109.689 66.0744 109.493C66.6127 109.281 67.1344 109.069 67.6068 108.824C68.0635 108.596 68.5036 108.351 68.9111 108.091C68.9466 108.079 68.9821 108.043 69.0057 108.032C69.0412 108.02 69.0531 107.996 69.0886 107.984C69.1241 107.973 69.1359 107.949 69.1714 107.937C69.1832 107.925 69.2187 107.89 69.2542 107.878C69.2542 107.878 69.266 107.866 69.2897 107.866C69.3015 107.854 69.3015 107.854 69.3252 107.831C69.337 107.819 69.3606 107.819 69.3725 107.795C69.3843 107.795 69.3844 107.783 69.408 107.783C69.7996 107.49 70.1249 107.213 70.4029 106.935C70.6644 106.675 70.8596 106.397 70.9897 106.12C71.1364 105.858 71.2015 105.582 71.2015 105.321C71.2015 105.061 71.1542 104.8 71.0217 104.539C70.8915 104.263 70.6952 104.018 70.4349 103.789C70.19 103.578 69.8646 103.366 69.4896 103.203C69.098 103.023 68.6579 102.861 68.1528 102.746C67.6476 102.616 67.0608 102.501 66.4247 102.421L66.422 102.4ZM57.9634 108.567C57.7185 108.555 57.4902 108.519 57.2784 108.472C57.0667 108.425 56.8869 108.354 56.7248 108.292C56.5615 108.233 56.4314 108.162 56.3166 108.064C56.1983 107.981 56.1049 107.901 56.0398 107.787C55.9806 107.692 55.9215 107.592 55.9215 107.477C55.9096 107.359 55.9334 107.249 55.9925 107.135C56.0398 107.017 56.1107 106.923 56.2208 106.793C56.3391 106.675 56.4657 106.565 56.6289 106.435C56.7922 106.316 56.9708 106.207 57.1672 106.108C57.3624 105.99 57.5908 105.896 57.8191 105.798C58.0474 105.715 58.2923 105.618 58.5691 105.553C58.8294 105.471 59.1074 105.39 59.4174 105.325C59.7108 105.254 60.0042 105.207 60.2976 105.162C60.591 105.126 60.8844 105.103 61.1612 105.079C61.438 105.067 61.7161 105.067 61.9763 105.067C62.2378 105.067 62.4981 105.079 62.7583 105.114C63.0032 105.15 63.2316 105.197 63.4433 105.245C63.6551 105.292 63.8348 105.339 63.9815 105.425C64.1448 105.484 64.2749 105.571 64.3885 105.653C64.4832 105.736 64.5684 105.833 64.6335 105.946C64.6926 106.041 64.7281 106.158 64.7281 106.273C64.7281 106.367 64.6926 106.484 64.6453 106.598C64.5743 106.716 64.5151 106.826 64.4003 106.94C64.282 107.035 64.1555 107.168 63.9768 107.282C63.8136 107.4 63.6349 107.51 63.4385 107.624C63.2422 107.718 63.015 107.819 62.7867 107.901C62.5749 107.995 62.3135 108.08 62.0532 108.161C61.7918 108.244 61.5149 108.308 61.2215 108.373C60.9281 108.42 60.6513 108.491 60.3732 108.519C60.0798 108.555 59.803 108.59 59.5416 108.602C59.2648 108.638 58.9868 108.638 58.7431 108.638C58.4662 108.626 58.2213 108.602 57.9611 108.567" fill="#EE3023"/>
<path d="M104.114 107.145C103.575 107.086 103.022 107.05 102.451 107.026C101.864 107.015 101.261 107.027 100.641 107.074C100.021 107.109 99.3859 107.168 98.7175 107.27C98.0491 107.365 97.3644 107.499 96.6633 107.645C95.9629 107.792 95.2939 107.972 94.6418 108.15C94.0065 108.33 93.4028 108.525 92.8321 108.737C92.2619 108.949 91.7236 109.194 91.2346 109.438C90.7294 109.682 90.2561 109.943 89.8325 110.204C89.3924 110.481 89.0339 110.758 88.724 111.019C88.4306 111.28 88.2022 111.524 88.0224 111.786C87.8591 112.031 87.7456 112.274 87.7125 112.519C87.6651 112.748 87.7007 112.993 87.7717 113.221C87.8663 113.433 88 113.644 88.1952 113.824C88.4069 114.004 88.6519 114.166 88.9618 114.314C89.2718 114.444 89.6302 114.574 90.0537 114.656C90.4607 114.751 90.9339 114.836 91.4721 114.884C91.9938 114.943 92.5321 114.967 93.1023 114.979C93.6571 114.979 94.2274 114.967 94.8141 114.908C95.4008 114.861 96.0206 114.79 96.64 114.713C97.2765 114.618 97.9116 114.501 98.58 114.354C99.2 114.224 99.8028 114.078 100.373 113.914C100.944 113.768 101.482 113.588 102.004 113.409C102.525 113.229 103.031 113.034 103.504 112.822C103.977 112.611 104.417 112.382 104.84 112.154C104.876 112.142 104.9 112.118 104.923 112.107C104.959 112.095 104.982 112.071 105.018 112.059C105.053 112.047 105.065 112.024 105.101 112.012C105.112 112 105.148 111.976 105.184 111.965C105.195 111.953 105.219 111.953 105.219 111.953C105.231 111.941 105.254 111.917 105.266 111.917C105.278 111.905 105.302 111.905 105.302 111.882C105.314 111.882 105.337 111.87 105.349 111.87C105.757 111.608 106.116 111.365 106.409 111.12C106.703 110.875 106.964 110.631 107.143 110.403C107.322 110.158 107.453 109.914 107.534 109.686C107.605 109.441 107.617 109.213 107.57 108.984C107.522 108.74 107.423 108.528 107.243 108.333C107.096 108.137 106.868 107.974 106.575 107.811C106.281 107.664 105.939 107.517 105.531 107.419C105.123 107.301 104.651 107.208 104.113 107.142L104.114 107.145ZM95.1952 112.636C94.9835 112.625 94.8037 112.589 94.6251 112.542C94.4618 112.506 94.315 112.459 94.2015 112.395C94.0713 112.348 93.9731 112.277 93.8915 112.2C93.8087 112.129 93.7614 112.053 93.7282 111.955C93.6927 111.86 93.6928 111.775 93.7164 111.678C93.7282 111.584 93.7874 111.483 93.8466 111.385C93.9294 111.29 94.0264 111.173 94.14 111.075C94.2701 110.956 94.4168 110.863 94.5966 110.748C94.7599 110.654 94.9551 110.553 95.1514 110.455C95.3466 110.36 95.5585 110.26 95.7868 110.178C96.0151 110.095 96.2434 110.015 96.5037 109.95C96.7486 109.879 97.0089 109.82 97.2857 109.754C97.5791 109.695 97.8406 109.636 98.1009 109.608C98.3623 109.572 98.6225 109.549 98.8674 109.525C99.1123 109.513 99.356 109.513 99.5844 109.513C99.8127 109.513 100.041 109.525 100.253 109.561C100.465 109.572 100.644 109.608 100.808 109.655C100.971 109.691 101.118 109.738 101.248 109.802C101.366 109.873 101.46 109.932 101.525 110.014C101.584 110.073 101.643 110.177 101.671 110.274C101.683 110.357 101.683 110.454 101.659 110.551C101.648 110.645 101.588 110.746 101.513 110.844C101.454 110.939 101.333 111.039 101.219 111.138C101.089 111.256 100.943 111.349 100.763 111.463C100.599 111.557 100.404 111.659 100.208 111.756C100.013 111.851 99.7997 111.936 99.5725 112.018C99.3442 112.1 99.1158 112.181 98.8709 112.246C98.6261 112.305 98.3659 112.376 98.089 112.426C97.8276 112.485 97.5673 112.544 97.3058 112.573C97.0456 112.608 96.8007 112.643 96.5558 112.655C96.3275 112.667 96.0825 112.691 95.8542 112.691C95.6259 112.679 95.4141 112.679 95.2024 112.643" fill="#EE3023"/>
<path d="M120.139 97.3299C119.601 97.2471 119.031 97.1998 118.444 97.1667C117.841 97.1549 117.237 97.1549 116.585 97.1785C115.933 97.2259 115.265 97.2968 114.564 97.3903C113.862 97.4849 113.145 97.6186 112.396 97.7818C111.645 97.9451 110.928 98.1237 110.244 98.3201C109.575 98.5153 108.923 98.7437 108.303 98.972C107.684 99.2169 107.113 99.4606 106.559 99.7386C106.004 100 105.499 100.293 105.01 100.602C104.537 100.896 104.13 101.189 103.788 101.482C103.446 101.776 103.152 102.069 102.956 102.346C102.744 102.639 102.597 102.916 102.532 103.178C102.45 103.455 102.45 103.716 102.521 103.976C102.58 104.237 102.7 104.465 102.879 104.678C103.059 104.89 103.303 105.069 103.613 105.231C103.906 105.395 104.264 105.525 104.689 105.655C105.097 105.773 105.569 105.85 106.108 105.916C106.646 105.999 107.199 106.035 107.77 106.047C108.341 106.058 108.944 106.047 109.547 106.011C110.167 105.964 110.803 105.893 111.455 105.799C112.107 105.705 112.792 105.588 113.493 105.441C114.145 105.294 114.781 105.148 115.384 104.968C116.004 104.804 116.574 104.609 117.145 104.413C117.699 104.218 118.236 103.989 118.742 103.761C119.264 103.533 119.753 103.288 120.209 103.028C120.245 103.016 120.28 102.992 120.328 102.98C120.363 102.968 120.375 102.933 120.411 102.909C120.446 102.897 120.47 102.874 120.505 102.862C120.541 102.85 120.576 102.826 120.6 102.815C120.612 102.803 120.635 102.803 120.647 102.779C120.659 102.779 120.683 102.767 120.683 102.744C120.695 102.744 120.718 102.732 120.73 102.732C120.742 102.72 120.765 102.72 120.777 102.696C121.234 102.419 121.626 102.141 121.967 101.865C122.309 101.604 122.603 101.326 122.816 101.049C123.044 100.789 123.207 100.511 123.321 100.251C123.416 99.9894 123.467 99.7292 123.451 99.4523C123.439 99.1909 123.368 98.9471 123.223 98.7188C123.076 98.4905 122.864 98.2953 122.587 98.1155C122.31 97.9357 121.967 97.7736 121.56 97.6423C121.153 97.5122 120.68 97.3973 120.142 97.3169L120.139 97.3299ZM110.23 103.414C110.018 103.402 109.822 103.355 109.66 103.296C109.48 103.248 109.35 103.201 109.236 103.116C109.106 103.069 109.024 102.986 108.943 102.904C108.884 102.821 108.824 102.724 108.813 102.611C108.801 102.516 108.801 102.399 108.824 102.301C108.86 102.183 108.919 102.073 109.004 101.959C109.099 101.841 109.216 101.731 109.346 101.617C109.493 101.499 109.656 101.389 109.851 101.275C110.047 101.145 110.258 101.03 110.471 100.933C110.683 100.815 110.911 100.722 111.156 100.64C111.401 100.545 111.661 100.46 111.923 100.378C112.183 100.296 112.477 100.232 112.77 100.167C113.063 100.108 113.34 100.048 113.618 100.02C113.895 99.9727 114.157 99.9608 114.417 99.9371C114.677 99.9253 114.922 99.9253 115.15 99.9253C115.395 99.9371 115.623 99.9608 115.835 99.9962C116.047 100.032 116.243 100.055 116.405 100.115C116.569 100.174 116.715 100.233 116.829 100.31C116.947 100.381 117.025 100.457 117.09 100.538C117.161 100.633 117.185 100.734 117.209 100.832C117.209 100.95 117.209 101.043 117.161 101.158C117.126 101.276 117.067 101.37 116.965 101.485C116.882 101.603 116.753 101.713 116.623 101.826C116.476 101.945 116.313 102.055 116.118 102.168C115.922 102.287 115.71 102.397 115.498 102.51C115.286 102.605 115.041 102.705 114.813 102.787C114.568 102.882 114.325 102.967 114.063 103.032C113.786 103.115 113.525 103.179 113.231 103.244C112.954 103.291 112.676 103.362 112.4 103.39C112.138 103.426 111.878 103.461 111.633 103.473C111.373 103.485 111.144 103.485 110.916 103.485C110.671 103.473 110.443 103.45 110.231 103.426" fill="#EE3023"/>
</svg>
