<svg width="150" height="150" viewBox="0 0 150 150" fill="none" xmlns="http://www.w3.org/2000/svg">
<path d="M57.2223 47.523C57.2223 44.2028 55.1892 40 46.6444 40C43.1377 40 33.4871 40 33.4871 40L29.7466 57.305C29.7466 57.305 36.8572 57.305 43.4634 57.305C54.1726 57.305 57.2223 52.2354 57.2223 47.523V47.523Z" fill="#F9F9F9"/>
<path d="M92.6646 47.523C92.6646 44.2028 90.6368 40 82.0946 40C78.5853 40 68.9346 40 68.9346 40L65.1968 57.3023C65.1968 57.3023 72.3047 57.3023 78.9057 57.3023C89.6202 57.305 92.6646 52.2354 92.6646 47.523V47.523Z" fill="#F9F9F9"/>
<path d="M52.4757 73.5671C52.4757 70.2469 50.4426 66.0336 41.8978 66.0336C38.3911 66.0336 28.7405 66.0336 28.7405 66.0336L25 83.3491C25 83.3491 32.1106 83.3491 38.7116 83.3491C49.4234 83.3491 52.4757 78.2664 52.4757 73.5671Z" fill="#F9F9F9"/>
<path d="M87.9181 73.5671C87.9181 70.2469 85.8824 66.0336 77.3455 66.0336C73.8335 66.0336 64.1881 66.0336 64.1881 66.0336L60.4424 83.3491C60.4424 83.3491 67.553 83.3491 74.1592 83.3491C84.8737 83.3491 87.9181 78.2664 87.9181 73.5671V73.5671Z" fill="#F9F9F9"/>
<path d="M125 63.005C125 59.6822 122.964 55.4715 114.427 55.4715C110.916 55.4715 101.27 55.4715 101.27 55.4715L97.5244 72.7843C97.5244 72.7843 104.64 72.7843 111.236 72.7843C121.95 72.7843 125 67.7147 125 63.005V63.005Z" fill="#F9F9F9"/>
<path d="M119.888 90.1208C119.888 86.798 117.858 82.5978 109.316 82.5978C105.809 82.5978 96.1584 82.5978 96.1584 82.5978L92.418 99.9028C92.418 99.9028 99.5233 99.9028 106.13 99.9028C116.841 99.9028 119.888 94.8201 119.888 90.1208Z" fill="#F9F9F9"/>
<path d="M82.8254 100.686C82.8254 97.3496 80.7976 93.139 72.2607 93.139C68.7461 93.139 59.0955 93.139 59.0955 93.139L55.355 110.452C55.355 110.452 62.4656 110.452 69.0666 110.452C79.781 110.454 82.8254 105.385 82.8254 100.686V100.686Z" fill="#F9F9F9"/>
</svg>
